<svg width="100" height="100" viewBox="0 0 100 100" fill="none" xmlns="http://www.w3.org/2000/svg">
<path d="M93.3332 92.0828H6.66659C5.83325 92.0828 4.58325 91.2495 4.58325 89.9995C4.58325 88.7495 5.41659 87.9161 6.66659 87.9161H93.3332C94.5832 87.9161 95.4166 88.7495 95.4166 89.9995C95.4166 91.2495 94.5832 92.0828 93.3332 92.0828Z" fill="#00A398"/>
<path d="M91.2499 94.1661C88.7499 94.1661 87.0832 92.4994 87.0832 89.9994C87.0832 87.9161 88.7499 85.8328 91.2499 85.8328C93.3332 85.8328 95.4165 87.4994 95.4165 89.9994C95.4165 92.4994 93.3332 94.1661 91.2499 94.1661Z" fill="#00A398"/>
<path d="M9.16648 94.1661C6.66648 94.1661 4.99982 92.4994 4.99982 89.9994C4.99982 87.9161 6.66648 85.8328 9.16648 85.8328C11.6665 85.8328 13.3331 87.4994 13.3331 89.9994C13.3331 92.4994 11.2498 94.1661 9.16648 94.1661Z" fill="#00A398"/>
<path d="M27.0833 92.0831H16.6666C15.4166 92.0831 14.9999 91.2498 14.9999 89.9998V77.9165C14.9999 76.6665 15.8333 75.8331 16.6666 75.8331H27.0833C28.3333 75.8331 29.1666 76.6665 29.1666 77.9165V89.9998C29.1666 91.2498 28.3333 92.0831 27.0833 92.0831ZM18.3333 88.3331H25.4166V79.9998H18.3333V88.3331Z" fill="#00A398"/>
<path d="M45.8333 92.0833H35.4166C34.5833 92.0833 33.7499 91.2499 33.7499 89.9999V47.9166C33.7499 46.6666 34.5833 45.8333 35.4166 45.8333H45.8333C47.0833 45.8333 47.9166 46.6666 47.9166 47.9166V89.9999C47.9166 91.2499 47.0833 92.0833 45.8333 92.0833ZM37.0833 88.3333H44.1666V49.9999H37.0833V88.3333Z" fill="#00A398"/>
<path d="M64.5833 92.0831H54.1666C53.3333 92.0831 52.4999 91.2498 52.4999 89.9998V59.1665C52.4999 57.9165 53.3333 57.0831 54.1666 57.0831H64.9999C66.2499 57.0831 67.0833 57.9165 67.0833 59.1665V89.9998C66.6666 91.2498 65.8333 92.0831 64.5833 92.0831ZM55.8333 88.3331H62.9166V61.2498H55.8333V88.3331Z" fill="#00A398"/>
<path d="M83.3334 92.0831H72.5C71.6667 92.0831 70.8334 91.2498 70.8334 89.9998V21.6665C70.8334 20.4165 71.6667 19.5831 72.5 19.5831H83.3334C84.5834 19.5831 85.4167 20.4165 85.4167 21.6665V89.9998C85.4167 91.2498 84.5834 92.0831 83.3334 92.0831ZM74.5834 88.3331H81.6667V23.7498H74.5834V88.3331Z" fill="#00A398"/>
<path d="M9.16655 70.8334C8.74989 70.8334 8.33322 70.8334 8.33322 70.8334C7.49989 70.4167 7.08322 69.1667 7.49989 68.3334L25.8332 37.9167C25.8332 37.5001 26.6666 37.0834 27.0832 37.0834L53.3332 33.7501L70.4166 6.25005C70.8332 5.41672 72.0832 5.00005 72.9166 5.83339C73.7499 6.25005 74.1666 7.50005 73.3332 8.33339L55.8332 36.6667C55.4166 37.0834 54.9999 37.5001 54.1666 37.5001L28.3332 40.4167L10.4166 70.0001C10.4166 70.8334 9.58322 70.8334 9.16655 70.8334Z" fill="#00A398"/>
<path d="M27.0834 43.3337C25 43.3337 22.9167 41.2504 22.9167 39.167C22.9167 36.667 25 35.0004 27.0834 35.0004C29.5834 35.0004 31.25 36.667 31.25 39.167C31.6667 41.667 29.5834 43.3337 27.0834 43.3337Z" fill="#00A398"/>
<path d="M9.16648 72.9166C6.66648 72.9166 4.99982 70.8333 4.99982 68.7499C4.99982 66.2499 7.08315 64.5833 9.16648 64.5833C11.6665 64.5833 13.3331 66.6666 13.3331 68.7499C13.3331 70.8333 11.6665 72.9166 9.16648 72.9166Z" fill="#00A398"/>
<path d="M54.1667 40.0002C52.0833 40.0002 50 37.9169 50 35.8335C50 33.3335 52.0833 31.6669 54.1667 31.6669C56.6667 31.6669 58.3333 33.7502 58.3333 35.8335C58.3333 37.9169 56.6667 40.0002 54.1667 40.0002Z" fill="#00A398"/>
<path d="M73.3332 16.2501C72.4999 16.2501 71.6666 15.8334 71.6666 15.0001L70.4166 10.0001L65.4166 11.2501C64.5832 11.6667 63.3332 10.8334 62.9166 10.0001C62.4999 8.33342 63.3332 7.50008 64.1666 7.08342L71.2499 5.41675C71.6666 5.41675 72.4999 5.41675 72.9166 5.83341C73.3332 6.25008 73.7499 6.66675 73.7499 7.08342L75.4166 14.1667C75.8332 15.0001 74.9999 16.2501 74.1666 16.2501C73.7499 16.2501 73.7499 16.2501 73.3332 16.2501Z" fill="#00A398"/>
</svg>
