<svg width="103" height="103" viewBox="0 0 103 103" fill="none" xmlns="http://www.w3.org/2000/svg">
<path d="M99.1375 93.1291H3.86251C2.57501 93.1291 1.71667 92.2708 1.71667 90.9833V44.6333C1.71667 43.3458 2.57501 42.4874 3.86251 42.4874H99.1375C100.425 42.4874 101.283 43.3458 101.283 44.6333V90.9833C101.283 92.2708 100.425 93.1291 99.1375 93.1291ZM6.00834 88.8374H96.9917V46.7791H6.00834V88.8374Z" fill="#162e51"/>
<path d="M87.5501 81.5417H15.4501C14.1626 81.5417 13.3043 80.6833 13.3043 79.3958V56.65C13.3043 55.3625 14.1626 54.5042 15.4501 54.5042H39.9126C41.2001 54.5042 42.0584 55.3625 42.0584 56.65V60.5125C42.0584 64.375 45.0626 67.3792 48.9251 67.3792H54.0751C57.9376 67.3792 60.9418 64.375 60.9418 60.5125V56.65C60.9418 55.3625 61.8001 54.5042 63.0876 54.5042H87.5501C88.8376 54.5042 89.6959 55.3625 89.6959 56.65V79.3958C89.6959 80.2542 88.8376 81.5417 87.5501 81.5417ZM17.5959 77.25H85.4043V58.7958H65.2334V60.5125C65.2334 66.5208 60.0834 71.6708 54.0751 71.6708H48.9251C42.9168 71.6708 37.7668 66.95 37.7668 60.5125V58.7958H17.5959V77.25Z" fill="#162e51"/>
<path d="M51.5 58.796C48.925 58.796 47.2084 57.0793 47.2084 54.5043C47.2084 51.9293 48.925 50.2126 51.5 50.2126C54.075 50.2126 55.7917 51.9293 55.7917 54.5043C55.7917 56.6501 54.075 58.796 51.5 58.796Z" fill="#162e51"/>
<path d="M51.5 63.9458C50.2125 63.9458 49.3542 63.0875 49.3542 61.8V56.65C49.3542 55.3625 50.2125 54.5042 51.5 54.5042C52.7875 54.5042 53.6459 55.3625 53.6459 56.65V61.8C53.6459 62.6583 52.7875 63.9458 51.5 63.9458Z" fill="#162e51"/>
<path d="M98.7084 46.7792H3.86251C2.57501 46.7792 1.71667 45.9209 1.71667 44.6334V23.175C1.71667 15.8792 7.72501 9.87085 15.0208 9.87085H87.55C94.8458 9.87085 100.854 15.8792 100.854 23.175V44.6334C100.854 45.9209 99.9958 46.7792 98.7084 46.7792ZM6.00834 42.4875H96.5625V23.175C96.5625 18.025 92.7 14.1625 87.55 14.1625H15.0208C9.87084 14.1625 6.00834 18.025 6.00834 23.175V42.4875Z" fill="#162e51"/>
<path d="M69.9541 35.1917H33.0458C31.7583 35.1917 30.9 34.3333 30.9 33.0458V23.175C30.9 16.7375 33.0458 9.87085 37.3375 9.87085H65.2333C69.525 9.87085 71.6708 16.7375 71.6708 23.175V33.0458C72.1 34.3333 71.2416 35.1917 69.9541 35.1917ZM35.1916 30.9H67.8083V23.175C67.8083 17.5958 66.0916 14.5917 65.6625 14.1625H37.7666C36.9083 14.5917 35.1916 17.5958 35.1916 23.175V30.9Z" fill="#162e51"/>
<path d="M98.7084 46.7793H3.86251C2.57501 46.7793 1.71667 45.921 1.71667 44.6335V33.046C1.71667 31.7585 2.57501 30.9001 3.86251 30.9001H98.7084C99.9958 30.9001 100.854 31.7585 100.854 33.046V44.6335C100.854 45.921 99.9958 46.7793 98.7084 46.7793ZM6.00834 42.4876H96.5625V35.1918H6.00834V42.4876Z" fill="#162e51"/>
</svg>
