<svg width="104" height="104" viewBox="0 0 104 104" fill="none" xmlns="http://www.w3.org/2000/svg">
<path d="M19.5 98.3664H7.80004C6.93338 98.3664 6.06671 97.4998 6.06671 96.1998V64.1331C6.06671 62.8331 6.93338 61.9664 7.80004 61.9664H19.5C21.2334 61.9664 22.9667 63.2664 22.9667 65.4331V94.8998C22.9667 96.6331 21.6667 98.3664 19.5 98.3664ZM9.53338 94.4664H19.0667V66.2998H9.53338V94.4664Z" fill="#00A398"/>
<path d="M60.2334 98.7998C54.6001 98.7998 42.9 97.4998 33.3667 96.1998C27.7334 95.7665 23.4 95.3332 20.8 95.3332C19.9334 95.3332 19.0667 94.4665 19.0667 93.1665V68.0332C19.0667 67.1665 19.5 66.2998 20.3667 66.2998C22.9667 65.4332 28.6 63.6998 34.2334 63.6998C36.8334 63.6998 39.4334 64.1332 42.0334 64.5665C49.8334 66.7332 57.6334 67.1665 61.5334 67.1665C64.1334 67.1665 66.3 67.1665 68.0334 66.7332C71.0667 66.2998 73.6667 67.5998 75.4001 69.7665C76.2667 71.0665 76.2667 72.3665 76.2667 73.6665C80.1667 72.3665 85.3667 70.1998 87.9667 68.4665C89.7001 67.5998 91.4334 67.1665 92.7334 67.1665C96.2001 67.1665 98.3667 69.7665 99.2334 71.9332C100.1 75.3998 98.3667 77.9998 94.0334 80.5998C93.1667 81.0332 91.4334 82.3332 89.2667 83.6332C78.4334 90.5665 67.6001 97.4998 62.4001 98.3665C61.9667 98.7998 61.1001 98.7998 60.2334 98.7998ZM22.9667 91.4332C25.5667 91.8665 29.4667 91.8665 33.3667 92.7332C44.2 94.0332 58.0667 95.3332 61.9667 94.8998C66.7334 94.0332 80.6001 85.3665 87.1001 81.0332C89.2667 79.7332 91.0001 78.4332 91.8667 77.9998C95.7667 75.8332 95.3334 74.5332 95.3334 73.2332C95.3334 72.3665 94.4667 71.4998 92.7334 71.4998C91.8667 71.4998 91.0001 71.9332 90.1334 72.3665C85.3667 75.3998 74.1001 79.2998 73.6667 79.7332C72.8001 80.1665 71.9334 79.7332 71.5001 79.2998C71.0667 78.8665 71.0667 77.9998 71.5001 77.1332C72.3667 75.3998 72.8001 73.6665 71.9334 72.7998C71.5001 71.9332 70.2001 71.4998 68.4667 71.4998C66.7334 71.9332 64.1334 71.9332 61.5334 71.9332C56.3334 71.9332 48.9667 71.4998 41.1667 69.3332C39 68.8998 36.8334 68.4665 34.6667 68.4665C30.3334 68.4665 26 69.3332 23.4 70.1998V91.4332H22.9667Z" fill="#00A398"/>
<path d="M51.1333 84.4999H50.7C49.8333 84.0665 48.9667 83.1999 49.4 82.3332C50.2667 79.7332 51.5667 79.7332 62.8333 78.8665C71.0667 77.9999 72.3667 76.2665 72.3667 76.2665C72.3667 74.9665 73.2333 74.5332 74.5333 74.5332C75.8333 74.5332 76.2667 75.8332 76.2667 76.6999C76.2667 77.9999 74.5333 81.8999 63.2667 82.7665C57.6333 83.1999 54.1667 83.6332 53.3 84.0665C52.4333 84.0665 51.5667 84.4999 51.1333 84.4999Z" fill="#00A398"/>
<path d="M64.1333 36.3999H55.4666C43.7666 36.3999 34.6666 26.8666 34.6666 15.5999V6.93323H43.7666C55.0333 6.93323 64.1333 16.0332 64.1333 27.2999V36.3999ZM38.5666 10.8332V16.0332C38.5666 25.1332 45.9333 32.4999 55.4666 32.4999H60.6666V27.2999C60.6666 18.1999 53.3 10.8332 44.2 10.8332H38.5666Z" fill="#00A398"/>
<path d="M69.3333 36.3999H60.2333V27.2999C60.2333 16.0332 69.3333 6.93323 80.6 6.93323H89.7V16.0332C89.7 26.8666 80.6 36.3999 69.3333 36.3999ZM64.1333 32.4999H69.3333C78.4333 32.4999 85.8 25.1332 85.8 16.0332V10.8332H80.6C71.5 10.8332 63.7 18.1999 63.7 27.2999V32.4999H64.1333Z" fill="#00A398"/>
<path d="M63.6113 32.901L38.1685 7.47974L35.4119 10.2386L60.8548 35.6598L63.6113 32.901Z" fill="#00A398"/>
<path d="M89.1996 10.1617L86.4419 7.40405L61.0099 32.8361L63.7675 35.5938L89.1996 10.1617Z" fill="#00A398"/>
<path d="M64.1334 38.5667H60.2333V51.1333H64.1334V38.5667Z" fill="#00A398"/>
<path d="M62.4 63.2665C61.1 63.2665 60.2333 62.3998 60.2333 61.0998V48.5331C60.2333 47.2331 61.1 46.3665 62.4 46.3665C63.2667 46.3665 64.1334 47.2331 64.1334 48.5331V61.0998C64.1334 62.3998 63.2667 63.2665 62.4 63.2665Z" fill="#00A398"/>
</svg>
