<svg width="293" height="46" viewBox="0 0 293 46" fill="none" xmlns="http://www.w3.org/2000/svg">
<g clip-path="url(#clip0)">
<path d="M28.5061 14.6517H24.7757C24.544 14.6849 24.3077 14.6639 24.0855 14.5904C23.8633 14.5168 23.6614 14.3927 23.4959 14.228C23.3303 14.0632 23.2056 13.8623 23.1317 13.6412C23.0578 13.4201 23.0368 13.1848 23.0702 12.9542V10.4428C23.0888 9.89612 22.9978 9.35126 22.8026 8.83996C22.6074 8.32867 22.3118 7.86119 21.9331 7.46478C21.5895 7.08111 21.1707 6.77138 20.7025 6.55459C20.2342 6.3378 19.7264 6.21853 19.2102 6.2041H10.9716C10.4603 6.19958 9.95429 6.30654 9.48904 6.51748C9.0238 6.72842 8.61061 7.03821 8.27854 7.42508C7.88676 7.81489 7.57865 8.27987 7.3729 8.79178C7.16715 9.3037 7.06806 9.85188 7.08164 10.4031V35.5373C7.06524 36.0837 7.15722 36.6279 7.35233 37.1389C7.54743 37.6499 7.84183 38.1176 8.21869 38.5153C8.57113 38.8909 8.99733 39.1904 9.47087 39.3953C9.94441 39.6002 10.4552 39.7061 10.9716 39.7065H19.2501C19.7524 39.7096 20.2494 39.6048 20.7073 39.3992C21.1652 39.1936 21.5731 38.8921 21.9032 38.5153C22.2968 38.1263 22.6067 37.6617 22.8142 37.1497C23.0217 36.6378 23.1223 36.0892 23.1101 35.5373V32.9564C23.0826 32.7295 23.1084 32.4993 23.1854 32.284C23.2623 32.0687 23.3884 31.874 23.5536 31.7153C23.7189 31.5567 23.9188 31.4382 24.1378 31.3694C24.3568 31.3005 24.5888 31.2831 24.8156 31.3185H28.4761C28.703 31.2831 28.935 31.3005 29.154 31.3694C29.3729 31.4382 29.5729 31.5567 29.7381 31.7153C29.9034 31.874 30.0294 32.0687 30.1064 32.284C30.1834 32.4993 30.2091 32.7295 30.1817 32.9564V35.5373C30.2145 36.9362 29.9498 38.3262 29.4049 39.6161C28.86 40.906 28.0472 42.0667 27.0199 43.022C24.9237 44.9921 22.1326 46.0619 19.2501 46H10.9716C8.10848 46.0526 5.33936 44.983 3.26155 43.022C2.20585 42.0838 1.36746 40.9286 0.804337 39.6363C0.241209 38.3441 -0.0332238 36.9455 9.83314e-06 35.5373V10.4428C-0.0299605 9.0472 0.236148 7.66103 0.780962 6.37476C1.32578 5.08848 2.13705 3.93102 3.16181 2.97795C5.27884 1.01541 8.07888 -0.0522917 10.9716 -4.0411e-05H19.1902C22.0741 -0.0695563 24.868 1.0013 26.9601 2.97795C28.0124 3.9172 28.8467 5.07328 29.4047 6.36582C29.9628 7.65836 30.2314 9.05636 30.1917 10.4626V13.0436C30.2135 13.2662 30.1842 13.4909 30.1062 13.7007C30.0281 13.9104 29.9032 14.0999 29.741 14.2547C29.5787 14.4095 29.3833 14.5256 29.1694 14.5944C28.9555 14.6632 28.7287 14.6827 28.5061 14.6517ZM39.6172 9.20195H35.9069C35.68 9.23733 35.448 9.2199 35.229 9.15104C35.0101 9.08218 34.8101 8.96376 34.6449 8.80507C34.4796 8.64638 34.3536 8.45174 34.2766 8.23642C34.1996 8.0211 34.1739 7.79095 34.2013 7.56405V4.58606C34.1789 4.36149 34.2083 4.13478 34.2875 3.9233C34.3667 3.71182 34.4934 3.52118 34.6581 3.36597C34.8227 3.21076 35.0208 3.0951 35.2373 3.02784C35.4537 2.96059 35.6828 2.94352 35.9069 2.97795H39.6372C39.8641 2.94257 40.0961 2.95999 40.315 3.02885C40.534 3.09771 40.7339 3.21613 40.8992 3.37482C41.0644 3.53351 41.1905 3.72815 41.2675 3.94348C41.3444 4.1588 41.3702 4.38894 41.3428 4.61584V7.59383C41.3659 7.82035 41.3362 8.04912 41.2559 8.26233C41.1757 8.47555 41.047 8.66744 40.8801 8.82307C40.7131 8.97869 40.5122 9.09385 40.2932 9.15957C40.0742 9.22528 39.8428 9.23979 39.6172 9.20195ZM39.6172 45.9305H35.9069C35.6809 45.9655 35.4499 45.9482 35.2318 45.8799C35.0137 45.8116 34.8143 45.6941 34.6493 45.5365C34.4843 45.379 34.358 45.1857 34.2803 44.9717C34.2026 44.7576 34.1755 44.5286 34.2013 44.3025V14.7807C34.1739 14.5538 34.1996 14.3237 34.2766 14.1083C34.3536 13.893 34.4796 13.6984 34.6449 13.5397C34.8101 13.381 35.0101 13.2626 35.229 13.1937C35.448 13.1249 35.68 13.1074 35.9069 13.1428H39.6372C39.8641 13.1074 40.0961 13.1249 40.315 13.1937C40.534 13.2626 40.7339 13.381 40.8992 13.5397C41.0644 13.6984 41.1905 13.893 41.2675 14.1083C41.3444 14.3237 41.3702 14.5538 41.3428 14.7807V44.3422C41.3693 44.5703 41.342 44.8014 41.2633 45.0172C41.1845 45.2329 41.0563 45.4275 40.8889 45.5855C40.7215 45.7434 40.5194 45.8604 40.2987 45.9272C40.078 45.994 39.8447 46.0087 39.6172 45.9702V45.9305ZM63.1263 44.6698C63.0298 45.0721 62.7916 45.4266 62.4548 45.6688C62.118 45.9111 61.7051 46.0251 61.291 45.99H56.673C56.2514 46.0276 55.8301 45.9157 55.4833 45.6742C55.1366 45.4326 54.8867 45.0769 54.7779 44.6698L45.2427 14.9892C45.1808 14.8523 45.1567 14.7016 45.1728 14.5524C45.1728 13.5597 45.6815 13.1031 46.7587 13.1031H50.2896C50.7044 13.0638 51.1194 13.1761 51.4571 13.4191C51.7949 13.662 52.0322 14.019 52.1248 14.4234L58.9571 35.6167L65.8293 14.4035C65.9449 14.0004 66.1964 13.6492 66.5415 13.4088C66.8865 13.1684 67.3042 13.0535 67.7243 13.0833H71.1953C72.2725 13.0833 72.7812 13.5895 72.7812 14.5325C72.7974 14.6817 72.7733 14.8325 72.7114 14.9693L63.1263 44.6698ZM81.9075 9.20195H78.1772C77.9504 9.23733 77.7183 9.2199 77.4994 9.15104C77.2804 9.08218 77.0805 8.96376 76.9152 8.80507C76.75 8.64638 76.6239 8.45174 76.547 8.23642C76.47 8.0211 76.4442 7.79095 76.4716 7.56405V4.58606C76.4492 4.36149 76.4787 4.13478 76.5579 3.9233C76.637 3.71182 76.7638 3.52118 76.9284 3.36597C77.093 3.21076 77.2912 3.0951 77.5076 3.02784C77.7241 2.96059 77.9531 2.94352 78.1772 2.97795H81.9075C82.1344 2.94257 82.3664 2.95999 82.5854 3.02885C82.8044 3.09771 83.0043 3.21613 83.1695 3.37482C83.3348 3.53351 83.4609 3.72815 83.5378 3.94348C83.6148 4.1588 83.6405 4.38894 83.6131 4.61584V7.59383C83.6356 7.8184 83.6061 8.04511 83.5269 8.25659C83.4477 8.46807 83.321 8.65871 83.1564 8.81392C82.9917 8.96914 82.7936 9.0848 82.5772 9.15205C82.3607 9.21931 82.1317 9.23637 81.9075 9.20195ZM81.9075 45.9305H78.1772C77.9513 45.9655 77.7203 45.9482 77.5021 45.8799C77.284 45.8116 77.0847 45.6941 76.9197 45.5365C76.7546 45.379 76.6283 45.1857 76.5506 44.9717C76.4729 44.7576 76.4459 44.5286 76.4716 44.3025V14.7807C76.4442 14.5538 76.47 14.3237 76.547 14.1083C76.6239 13.893 76.75 13.6984 76.9152 13.5397C77.0805 13.381 77.2804 13.2626 77.4994 13.1937C77.7183 13.1249 77.9504 13.1074 78.1772 13.1428H81.9075C82.1344 13.1074 82.3664 13.1249 82.5854 13.1937C82.8044 13.2626 83.0043 13.381 83.1695 13.5397C83.3348 13.6984 83.4609 13.893 83.5378 14.1083C83.6148 14.3237 83.6405 14.5538 83.6131 14.7807V44.3422C83.6389 44.5683 83.6118 44.7973 83.5341 45.0114C83.4564 45.2254 83.3301 45.4187 83.1651 45.5762C83.0001 45.7338 82.8007 45.8513 82.5826 45.9196C82.3645 45.9879 82.1335 46.0052 81.9075 45.9702V45.9305ZM109.536 19.6448C109.351 19.8539 109.111 20.0061 108.842 20.0835C108.573 20.1609 108.288 20.1602 108.02 20.0815C105.074 19.4329 102.06 19.1396 99.0431 19.208C98.5408 19.2049 98.0437 19.3097 97.5859 19.5153C97.128 19.7208 96.7201 20.0223 96.39 20.3992C95.9968 20.788 95.6877 21.2527 95.4819 21.7649C95.276 22.2771 95.1777 22.8258 95.1931 23.3772V35.7358C95.174 36.8104 95.5828 37.8488 96.3301 38.6245C96.6633 39.018 97.0785 39.3347 97.547 39.5524C98.0155 39.7701 98.526 39.8837 99.0431 39.8852C102.04 39.9515 105.035 39.6549 107.96 39.0017C108.222 38.9134 108.505 38.9021 108.774 38.969C109.042 39.0358 109.286 39.1781 109.476 39.3789C109.803 39.699 110.005 40.125 110.045 40.58V43.151C110.045 45.0371 106.387 45.9801 99.073 45.9801C96.2018 46.0737 93.4095 45.0356 91.3032 43.0915C90.2556 42.1751 89.4219 41.042 88.8602 39.7714C88.2986 38.5009 88.0226 37.1236 88.0516 35.7358V23.397C88.0221 22.0264 88.2892 20.6654 88.8347 19.4066C89.3803 18.1477 90.1915 17.0203 91.2134 16.101C93.3382 14.1381 96.1445 13.0707 99.0431 13.123C106.357 13.123 110.015 14.066 110.015 15.9521V18.533C109.997 18.9612 109.828 19.3693 109.536 19.6845V19.6448ZM150.32 44.4613C150.32 45.454 149.821 45.9007 148.744 45.9007H144.884C144.463 45.9383 144.041 45.8264 143.695 45.5848C143.348 45.3433 143.098 44.9875 142.989 44.5805L139.458 33.3931H124.986L121.445 44.6698C121.349 45.0721 121.11 45.4266 120.774 45.6688C120.437 45.9111 120.024 46.0251 119.61 45.99H115.76C114.683 45.99 114.174 45.4937 114.174 44.5507C114.159 44.3992 114.18 44.2463 114.234 44.104L127.759 1.3202C127.868 0.911297 128.119 0.554183 128.468 0.312421C128.817 0.0706598 129.24 -0.0400633 129.664 -4.0411e-05H134.85C135.272 -0.0376058 135.693 0.0742698 136.04 0.315836C136.387 0.557402 136.636 0.913123 136.745 1.3202L150.21 44.0841C150.282 44.2224 150.319 44.3754 150.32 44.5308V44.4613ZM132.247 10.5023L127.001 27.2287H137.493L132.247 10.5023ZM173.36 19.6845C173.177 19.8946 172.936 20.0475 172.667 20.125C172.398 20.2025 172.112 20.2012 171.844 20.1212C168.898 19.4726 165.884 19.1793 162.868 19.2477C162.365 19.2446 161.868 19.3494 161.41 19.555C160.952 19.7606 160.545 20.0621 160.214 20.4389C159.821 20.8277 159.512 21.2924 159.306 21.8046C159.1 22.3168 159.002 22.8655 159.018 23.4169V35.7358C158.998 36.8104 159.407 37.8488 160.155 38.6245C160.488 39.018 160.903 39.3347 161.371 39.5524C161.84 39.7701 162.35 39.8837 162.868 39.8852C165.865 39.9515 168.859 39.6549 171.784 39.0017C172.047 38.9134 172.329 38.9021 172.598 38.969C172.867 39.0358 173.111 39.1781 173.3 39.3789C173.628 39.699 173.829 40.125 173.869 40.58V43.151C173.869 45.0371 170.212 45.9801 162.897 45.9801C160.026 46.0737 157.234 45.0356 155.128 43.0915C154.08 42.1751 153.246 41.042 152.685 39.7714C152.123 38.5009 151.847 37.1236 151.876 35.7358V23.397C151.847 22.0264 152.114 20.6654 152.659 19.4066C153.205 18.1477 154.016 17.0203 155.038 16.101C157.163 14.1381 159.969 13.0707 162.868 13.123C170.182 13.123 173.839 14.066 173.839 15.9521V18.533C173.822 18.9612 173.652 19.3693 173.36 19.6845ZM192.002 45.7816L189.349 45.9702C187.922 46.1044 186.483 45.9269 185.133 45.4503C183.782 44.9736 182.552 44.2093 181.529 43.2106C180.488 42.2359 179.663 41.0548 179.108 39.7434C178.553 38.432 178.28 37.0195 178.307 35.5969V6.54161C178.307 5.65814 179.066 5.03276 180.522 4.71511L183.514 4.3379C183.749 4.29578 183.991 4.30788 184.221 4.37327C184.451 4.43866 184.663 4.55559 184.841 4.71511C185.016 4.87314 185.158 5.06412 185.259 5.27706C185.36 5.49001 185.418 5.72072 185.429 5.95594V13.252H191.942C192.169 13.2166 192.401 13.2341 192.62 13.3029C192.839 13.3718 193.039 13.4902 193.204 13.6489C193.369 13.8076 193.495 14.0022 193.572 14.2175C193.649 14.4329 193.675 14.663 193.648 14.8899V17.7786C193.675 18.0055 193.649 18.2356 193.572 18.4509C193.495 18.6662 193.369 18.8609 193.204 19.0196C193.039 19.1783 192.839 19.2967 192.62 19.3655C192.401 19.4344 192.169 19.4518 191.942 19.4164H185.429V35.5969C185.413 36.1432 185.505 36.6875 185.7 37.1985C185.895 37.7095 186.189 38.1772 186.566 38.5748C186.902 38.9681 187.319 39.2845 187.789 39.5021C188.259 39.7197 188.771 39.8335 189.289 39.8355H191.942C192.168 39.8005 192.399 39.8178 192.617 39.8861C192.835 39.9544 193.035 40.0719 193.2 40.2295C193.365 40.387 193.491 40.5803 193.569 40.7943C193.646 41.0084 193.673 41.2374 193.648 41.4635V44.1735C193.661 44.3907 193.628 44.6083 193.549 44.8116C193.471 45.0148 193.35 45.199 193.194 45.3515C193.038 45.504 192.85 45.6213 192.645 45.6955C192.439 45.7697 192.22 45.7991 192.002 45.7816ZM203.472 9.20195H199.173C198.948 9.23392 198.718 9.21395 198.502 9.14356C198.286 9.07318 198.088 8.95426 197.925 8.79599C197.763 8.63772 197.638 8.44433 197.562 8.23073C197.487 8.01713 197.461 7.78904 197.488 7.56405V4.58606C197.466 4.36341 197.495 4.13873 197.573 3.92895C197.651 3.71916 197.776 3.52974 197.938 3.37493C198.101 3.22013 198.296 3.10397 198.51 3.03521C198.724 2.96644 198.951 2.94687 199.173 2.97795H203.472C203.699 2.94257 203.931 2.95999 204.15 3.02885C204.369 3.09771 204.569 3.21613 204.734 3.37482C204.899 3.53351 205.026 3.72815 205.102 3.94348C205.179 4.1588 205.205 4.38894 205.178 4.61584V7.59383C205.2 7.8184 205.171 8.04511 205.092 8.25659C205.012 8.46807 204.886 8.65871 204.721 8.81392C204.556 8.96914 204.358 9.0848 204.142 9.15205C203.925 9.21931 203.696 9.23637 203.472 9.20195ZM203.472 45.9305H199.742C199.516 45.9655 199.285 45.9482 199.067 45.8799C198.849 45.8116 198.649 45.6941 198.484 45.5365C198.319 45.379 198.193 45.1857 198.115 44.9717C198.038 44.7576 198.011 44.5286 198.036 44.3025V14.7807C198.009 14.5538 198.035 14.3237 198.112 14.1083C198.189 13.893 198.315 13.6984 198.48 13.5397C198.645 13.381 198.845 13.2626 199.064 13.1937C199.283 13.1249 199.515 13.1074 199.742 13.1428H203.472C203.699 13.1074 203.931 13.1249 204.15 13.1937C204.369 13.2626 204.569 13.381 204.734 13.5397C204.899 13.6984 205.026 13.893 205.102 14.1083C205.179 14.3237 205.205 14.5538 205.178 14.7807V44.3422C205.204 44.5683 205.177 44.7973 205.099 45.0114C205.021 45.2254 204.895 45.4187 204.73 45.5762C204.565 45.7338 204.365 45.8513 204.147 45.9196C203.929 45.9879 203.698 46.0052 203.472 45.9702V45.9305ZM233.325 43.0418C231.189 44.9776 228.382 46.0132 225.495 45.9305H220.508C217.657 46.0126 214.887 44.975 212.798 43.0418C211.761 42.129 210.934 41.0031 210.377 39.7418C209.819 38.4805 209.542 37.1137 209.566 35.7358V23.397C209.537 22.0264 209.804 20.6654 210.35 19.4066C210.895 18.1477 211.706 17.0203 212.728 16.101C214.853 14.1381 217.659 13.0707 220.558 13.123H225.545C228.418 13.0288 231.212 14.071 233.315 16.0215C234.357 16.9407 235.185 18.075 235.741 19.3454C236.298 20.6158 236.569 21.9917 236.536 23.3772V35.7358C236.558 37.1174 236.283 38.4876 235.729 39.7545C235.175 41.0215 234.355 42.1559 233.325 43.0815V43.0418ZM229.335 23.3573C229.352 22.2801 228.944 21.2393 228.198 20.4587C227.855 20.0772 227.438 19.7694 226.972 19.5543C226.505 19.3392 225.999 19.2213 225.485 19.208H220.498C219.986 19.1982 219.478 19.2997 219.009 19.5055C218.541 19.7112 218.123 20.0162 217.785 20.3992C217.031 21.2069 216.624 22.2751 216.648 23.3772V35.7358C216.629 36.8104 217.038 37.8488 217.785 38.6245C218.134 39.0151 218.56 39.3291 219.038 39.5462C219.515 39.7632 220.033 39.8787 220.558 39.8852H225.545C226.047 39.8883 226.544 39.7835 227.002 39.5779C227.46 39.3723 227.868 39.0708 228.198 38.694C228.59 38.3045 228.899 37.8396 229.105 37.3276C229.31 36.8156 229.409 36.2672 229.395 35.716L229.335 23.3573ZM265.821 45.9305H262.09C261.864 45.9655 261.633 45.9482 261.415 45.8799C261.197 45.8116 260.998 45.6941 260.833 45.5365C260.668 45.379 260.541 45.1857 260.464 44.9717C260.386 44.7576 260.359 44.5286 260.385 44.3025V23.397C260.402 22.3199 259.994 21.279 259.248 20.4984C258.903 20.1166 258.484 19.8087 258.016 19.5936C257.547 19.3786 257.04 19.2609 256.525 19.2477H251.597C251.085 19.2366 250.577 19.3375 250.108 19.5433C249.639 19.7491 249.221 20.0549 248.884 20.4389C248.486 20.8243 248.173 21.2882 247.965 21.801C247.757 22.3139 247.659 22.8642 247.678 23.4169L247.747 44.3621C247.747 45.4341 247.179 45.99 245.972 45.99H242.371C242.145 46.0251 241.914 46.0078 241.696 45.9394C241.478 45.8711 241.279 45.7536 241.114 45.5961C240.949 45.4386 240.822 45.2453 240.745 45.0312C240.667 44.8172 240.64 44.5882 240.666 44.3621V23.397C240.634 22.0183 240.899 20.6487 241.443 19.3801C241.986 18.1115 242.796 16.9732 243.818 16.0414C245.954 14.0996 248.765 13.0602 251.657 13.1428H256.584C259.461 13.0471 262.258 14.0893 264.364 16.0414C265.406 16.9606 266.235 18.0949 266.791 19.3653C267.347 20.6357 267.619 22.0116 267.586 23.397V44.3422C267.614 44.5732 267.586 44.8075 267.506 45.026C267.425 45.2445 267.294 45.441 267.123 45.5997C266.952 45.7583 266.746 45.8745 266.521 45.9389C266.297 46.0033 266.06 46.014 265.83 45.9702L265.821 45.9305ZM289.828 43.2304C287.643 45.0616 284.854 46.0234 281.999 45.9305C274.684 45.9305 271.027 44.9874 271.027 43.1014V40.5701C271.057 40.145 271.237 39.7442 271.536 39.4385C271.709 39.2144 271.949 39.0506 272.221 38.9703C272.493 38.8901 272.784 38.8976 273.052 38.9918C275.997 39.6478 279.011 39.9445 282.028 39.8752C283.026 39.8935 283.994 39.5393 284.741 38.8826C285.112 38.5506 285.405 38.1426 285.602 37.6867C285.798 37.2308 285.892 36.7379 285.878 36.2421C285.861 35.7533 285.711 35.2783 285.444 34.8676C285.177 34.4569 284.803 34.1258 284.362 33.9093C284.173 33.8498 283.225 33.413 281.52 32.6586C277.48 30.8916 275.136 29.76 274.438 29.3232C273.362 28.6209 272.484 27.657 271.888 26.5226C271.291 25.3883 270.994 24.1212 271.027 22.8411C270.982 21.4959 271.243 20.158 271.791 18.9272C272.338 17.6965 273.158 16.6048 274.189 15.7337C276.396 13.9395 279.181 13.0015 282.028 13.0932C289.23 13.0932 292.83 14.0362 292.83 15.9223V18.5032C292.8 18.9283 292.62 19.3291 292.322 19.6348C292.139 19.846 291.898 19.9996 291.629 20.0772C291.36 20.1547 291.074 20.1528 290.806 20.0716C287.926 19.4281 284.979 19.1348 282.028 19.1981C281.014 19.1484 280.019 19.4857 279.246 20.1411C278.885 20.4889 278.601 20.9078 278.412 21.371C278.223 21.8342 278.133 22.3315 278.149 22.8312C278.166 23.3112 278.31 23.7783 278.565 24.1858C278.821 24.5934 279.179 24.9272 279.605 25.154C280.527 25.628 281.476 26.0489 282.447 26.4147C284.915 27.3434 287.303 28.4688 289.589 29.7798C290.664 30.4806 291.541 31.4428 292.138 32.5754C292.735 33.708 293.032 34.9735 293 36.252C293.045 37.5843 292.784 38.9092 292.236 40.1256C291.688 41.3419 290.868 42.4175 289.838 43.2701L289.828 43.2304Z" fill="white"/>
</g>
<defs>
<clipPath id="clip0">
<rect width="293" height="46" fill="white"/>
</clipPath>
</defs>
</svg>
