<svg width="57" height="57" viewBox="0 0 57 57" fill="none" xmlns="http://www.w3.org/2000/svg">
<path d="M37.05 18.0498H19.95C19.4253 18.0498 19 18.4751 19 18.9998V41.7998C19 42.3245 19.4253 42.7498 19.95 42.7498H37.05C37.5747 42.7498 38 42.3245 38 41.7998V18.9998C38 18.4751 37.5747 18.0498 37.05 18.0498ZM36.1 40.8498H20.9V35.1498H36.1V40.8498ZM36.1 33.2498H20.9V27.5498H36.1V33.2498ZM36.1 25.6498H20.9V19.9498H36.1V25.6498Z" fill="#A23737"/>
<path d="M54.15 0H40.85C39.2779 0.00469509 38.0047 1.27794 38 2.85V10.45C38.0047 12.0221 39.2779 13.2953 40.85 13.3H44.65V15.2H42.75V17.1H52.25V15.2H50.35V13.3H54.15C55.7221 13.2953 56.9953 12.0221 57 10.45V2.85C56.9953 1.27794 55.7221 0.00469509 54.15 0ZM48.45 15.2H46.55V13.3H48.45V15.2ZM55.1 10.45C55.1 10.9747 54.6747 11.4 54.15 11.4H40.85C40.3253 11.4 39.9 10.9747 39.9 10.45V9.5H55.1V10.45ZM55.1 7.6H39.9V2.85C39.9 2.32533 40.3253 1.9 40.85 1.9H54.15C54.6747 1.9 55.1 2.32533 55.1 2.85V7.6Z" fill="#A23737"/>
<path d="M56.05 51.2998V44.6498C56.0453 43.0777 54.7721 41.8045 53.2 41.7998H41.8C40.2279 41.8045 38.9547 43.0777 38.95 44.6498V51.2998C38.4253 51.2998 38 51.7251 38 52.2498V54.1498C38.0047 55.7219 39.2779 56.9951 40.85 56.9998H54.15C55.7221 56.9951 56.9953 55.7219 57 54.1498V52.2498C57 51.7251 56.5747 51.2998 56.05 51.2998ZM40.85 44.6498C40.85 44.1251 41.2753 43.6998 41.8 43.6998H53.2C53.7247 43.6998 54.15 44.1251 54.15 44.6498V51.2998H40.85V44.6498ZM55.1 54.1498C55.1 54.6745 54.6747 55.0998 54.15 55.0998H40.85C40.3253 55.0998 39.9 54.6745 39.9 54.1498V53.1998H55.1V54.1498Z" fill="#A23737"/>
<path d="M14.25 43.6999H13.3V42.7499C13.2953 41.1778 12.0221 39.9046 10.45 39.8999H2.85C1.27794 39.9046 0.00469509 41.1778 0 42.7499V54.1499C0.00469509 55.722 1.27794 56.9952 2.85 56.9999H14.25C15.8221 56.9952 17.0953 55.722 17.1 54.1499V46.5499C17.0953 44.9778 15.8221 43.7046 14.25 43.6999ZM7.771 55.0999H2.85C2.32533 55.0999 1.9 54.6746 1.9 54.1499V42.7499C1.9 42.2252 2.32533 41.7999 2.85 41.7999H10.45C10.9747 41.7999 11.4 42.2252 11.4 42.7499V43.6999H10.45C8.87794 43.7046 7.60469 44.9778 7.6 46.5499V54.1499C7.60257 54.474 7.6604 54.7953 7.771 55.0999ZM15.2 54.1499C15.2 54.6746 14.7747 55.0999 14.25 55.0999H10.45C9.92533 55.0999 9.5 54.6746 9.5 54.1499V46.5499C9.5 46.0252 9.92533 45.5999 10.45 45.5999H14.25C14.7747 45.5999 15.2 46.0252 15.2 46.5499V54.1499Z" fill="#A23737"/>
<path d="M20.8234 5.77605C20.5802 4.45868 19.7904 3.30594 18.6498 2.60344C17.5091 1.90094 16.1243 1.7144 14.8384 2.09004C13.7679 0.763972 12.1536 -0.00475981 10.4494 2.21786e-05C8.02155 0.00726658 5.8625 1.54564 5.0629 3.83804C2.06665 4.1856 -0.140121 6.80728 0.0285902 9.8189C0.197301 12.8305 2.68308 15.1893 5.6994 15.2001H19.9494C22.4136 15.2147 24.4797 13.3424 24.7073 10.8888C24.9348 8.43509 23.2482 6.21485 20.8234 5.77605ZM19.9494 13.3H5.6994C3.62628 13.2833 1.94798 11.6103 1.92468 9.53723C1.90139 7.46418 3.54168 5.75387 5.6139 5.69055C5.66377 5.70213 5.71471 5.7085 5.76589 5.70955C6.2269 5.71998 6.63 5.40069 6.7254 4.94954C7.03138 3.41481 8.24907 2.22588 9.79069 1.95667C11.3323 1.68747 12.8809 2.39334 13.6889 3.73355C13.9377 4.15899 14.4747 4.31718 14.9144 4.09455C15.7946 3.65787 16.8383 3.7093 17.6712 4.23039C18.5042 4.75148 19.007 5.66754 18.9994 6.65005C18.9994 7.17472 19.4247 7.60005 19.9494 7.60005C21.5234 7.60005 22.7994 8.87603 22.7994 10.45C22.7994 12.0241 21.5234 13.3 19.9494 13.3Z" fill="#A23737"/>
<path d="M22.8008 21.8501H24.7008V23.7501H22.8008V21.8501Z" fill="#A23737"/>
<path d="M27.5508 21.8501H29.4508V23.7501H27.5508V21.8501Z" fill="#A23737"/>
<path d="M32.3008 21.8501H34.2008V23.7501H32.3008V21.8501Z" fill="#A23737"/>
<path d="M22.8008 29.4502H24.7008V31.3502H22.8008V29.4502Z" fill="#A23737"/>
<path d="M27.5508 29.4502H29.4508V31.3502H27.5508V29.4502Z" fill="#A23737"/>
<path d="M32.3008 29.4502H34.2008V31.3502H32.3008V29.4502Z" fill="#A23737"/>
<path d="M22.8008 37.0503H24.7008V38.9503H22.8008V37.0503Z" fill="#A23737"/>
<path d="M27.5508 37.0503H29.4508V38.9503H27.5508V37.0503Z" fill="#A23737"/>
<path d="M32.3008 37.0503H34.2008V38.9503H32.3008V37.0503Z" fill="#A23737"/>
<path d="M48.4504 25.6505V19.0005H46.5504V24.7005H39.9004V26.6005H47.5004C48.0251 26.6005 48.4504 26.1752 48.4504 25.6505Z" fill="#A23737"/>
<path d="M39.9004 32.2994H46.5504V39.8994H48.4504V31.3494C48.4504 30.8247 48.0251 30.3994 47.5004 30.3994H39.9004V32.2994Z" fill="#A23737"/>
<path d="M10.4508 17.1001H8.55078V25.6501C8.55078 26.1748 8.97611 26.6001 9.50078 26.6001H17.1008V24.7001H10.4508V17.1001Z" fill="#A23737"/>
<path d="M8.55078 31.3494V37.9994H10.4508V32.2994H17.1008V30.3994H9.50078C8.97611 30.3994 8.55078 30.8247 8.55078 31.3494Z" fill="#A23737"/>
</svg>
