<svg width="57" height="57" viewBox="0 0 57 57" fill="none" xmlns="http://www.w3.org/2000/svg">
    <path d="M28.2613 13.7756C27.3113 13.7756 4.98633 13.7756 4.98633 8.31309C4.98633 2.85059 27.3113 2.85059 28.2613 2.85059C29.2113 2.85059 51.5363 2.85059 51.5363 8.31309C51.5363 13.7756 29.2113 13.7756 28.2613 13.7756ZM28.2613 4.98809C15.1988 4.98809 7.59883 7.12559 7.12383 8.55059C7.59883 9.50059 15.1988 11.6381 28.2613 11.6381C41.5613 11.6381 48.9238 9.50059 49.3988 8.31309C48.9238 7.12559 41.5613 4.98809 28.2613 4.98809Z" fill="#A23737"/>
    <path d="M28.2613 27.3125C27.3113 27.3125 4.98633 27.3125 4.98633 21.85V8.3125C4.98633 7.6 5.46133 7.125 6.17383 7.125C6.88633 7.125 7.12383 7.8375 7.12383 8.3125C7.59883 9.5 15.1988 11.6375 28.2613 11.6375C41.3238 11.6375 48.9238 9.5 49.3988 8.3125C49.3988 8.3125 49.3988 8.3125 49.3988 8.075C49.3988 7.6 49.8738 7.125 50.3488 7.125C50.8238 7.125 51.2988 7.6 51.2988 8.3125V21.6125C51.5363 27.3125 29.2113 27.3125 28.2613 27.3125ZM7.12383 10.925V21.85C7.59883 23.0375 14.9613 25.175 28.2613 25.175C41.5613 25.175 48.9238 23.0375 49.3988 21.85V11.1625C43.6988 14.0125 28.9738 14.0125 28.2613 14.0125C27.5488 13.775 12.8238 13.775 7.12383 10.925Z" fill="#A23737"/>
    <path d="M23.75 20.4244H22.5625C19.475 20.1869 16.625 19.9494 14.25 19.4744H13.0625L13.3 17.3369L14.25 17.5744C16.625 18.0494 19.475 18.2869 22.5625 18.2869H23.75V20.4244Z" fill="#A23737"/>
    <path d="M14.2488 15.4375H12.1113V20.9H14.2488V15.4375Z" fill="#A23737"/>
    <path d="M10.9227 14.4873H8.78516V19.9498H10.9227V14.4873Z" fill="#A23737"/>
    <path d="M28.2613 40.6131C27.3113 40.6131 4.98633 40.6131 4.98633 35.1506V21.6131C4.98633 21.1381 5.46133 20.6631 6.17383 20.6631C6.88633 20.6631 7.12383 21.1381 7.12383 21.6131C7.59883 22.8006 14.9613 24.9381 28.2613 24.9381C41.3238 24.9381 48.9238 22.8006 49.3988 21.6131C49.3988 21.1381 49.8738 20.6631 50.3488 20.6631C50.8238 20.6631 51.2988 21.1381 51.2988 21.6131V35.1506C51.5363 40.3756 29.2113 40.6131 28.2613 40.6131ZM7.12383 24.2256V35.1506C7.59883 36.3381 14.9613 38.4756 28.2613 38.4756C41.5613 38.4756 48.9238 36.3381 49.3988 35.1506V24.2256C43.6988 27.0756 28.9738 27.0756 28.2613 27.0756C27.5488 27.0756 12.8238 27.0756 7.12383 24.2256Z" fill="#A23737"/>
    <path d="M23.7488 33.7254H22.5613C19.4738 33.4879 16.6238 33.2504 14.2488 32.7754L13.2988 32.5379L13.5363 30.4004L14.4863 30.6379C16.8613 31.1129 19.7113 31.3504 22.7988 31.3504H23.9863L23.7488 33.7254Z" fill="#A23737"/>
    <path d="M14.2488 28.7383H12.1113V34.2008H14.2488V28.7383Z" fill="#A23737"/>
    <path d="M10.9227 27.7881H8.78516V33.2506H10.9227V27.7881Z" fill="#A23737"/>
    <path d="M28.2613 53.6756C27.3113 53.6756 4.98633 53.6756 4.98633 48.2131V34.9131C4.98633 34.2006 5.46133 33.7256 6.17383 33.7256C6.88633 33.7256 7.12383 34.2006 7.12383 34.9131C7.59883 36.1006 14.9613 38.2381 28.2613 38.2381C41.3238 38.2381 48.9238 36.1006 49.3988 34.9131C49.3988 34.9131 49.3988 34.9131 49.3988 34.6756C49.3988 34.2006 49.8738 33.7256 50.3488 33.7256C50.8238 33.7256 51.2988 34.2006 51.2988 34.9131V48.2131C51.5363 53.6756 29.2113 53.6756 28.2613 53.6756ZM7.12383 37.5256V48.2131C7.59883 49.4006 14.9613 51.5381 28.2613 51.5381C41.5613 51.5381 48.9238 49.4006 49.3988 48.2131V37.5256C43.9363 40.3756 29.2113 40.3756 28.2613 40.3756C27.5488 40.3756 12.8238 40.3756 7.12383 37.5256Z" fill="#A23737"/>
    <path d="M23.7488 47.0262H22.5613C19.4738 46.7887 16.6238 46.5512 14.2488 46.0762L13.2988 45.8387L13.5363 43.7012L14.4863 43.9387C16.8613 44.4137 19.7113 44.6512 22.7988 44.8887H23.9863L23.7488 47.0262Z" fill="#A23737"/>
    <path d="M14.2488 42.0381H12.1113V47.5006H14.2488V42.0381Z" fill="#A23737"/>
    <path d="M10.9227 41.0879H8.78516V46.5504H10.9227V41.0879Z" fill="#A23737"/>
</svg>
