<svg width="86" height="78" viewBox="0 0 86 78" fill="none" xmlns="http://www.w3.org/2000/svg">
<path d="M42.72 77.5685C40.2789 77.5685 38.448 76.9578 36.6172 74.5147L5.49258 37.8681C4.88229 37.2573 4.272 36.6466 4.272 36.6466C1.22057 32.9819 0 28.0957 0 23.2095C0 10.3832 11.5954 0 25.632 0C32.3452 0 38.448 1.83233 42.72 5.49698C47.6023 1.83233 53.7052 0 59.8081 0C73.8447 0 85.4401 10.3832 85.4401 23.2095C85.4401 28.0957 83.6092 32.9819 81.1681 36.6466C81.1681 36.6466 81.1681 37.2573 80.5578 37.2573H79.9475L48.8229 74.5147C47.6023 76.9578 45.1612 77.5685 42.72 77.5685ZM9.1543 34.2034L40.8892 71.4608C42.1098 72.6823 43.3303 72.6823 44.5509 71.4608L76.2858 34.2034C76.2858 34.2034 76.2858 34.2034 76.8961 33.5927C79.3372 30.5388 80.5578 27.4849 80.5578 23.2095C80.5578 13.4371 71.4035 5.49698 60.4184 5.49698C54.3155 5.49698 48.8229 7.94009 45.1612 11.6047C44.5509 12.2155 43.9406 12.8263 43.3303 12.8263C42.7201 12.8263 42.1098 12.2155 41.4995 11.6047C37.8378 7.94009 32.3452 5.49698 26.2423 5.49698C15.2572 5.49698 6.10286 13.4371 6.10286 23.2095C6.10286 26.8741 7.32344 30.5388 9.76458 33.5927C9.1543 33.5927 9.1543 33.5927 9.1543 34.2034Z" fill="#162e51"/>
</svg>
