<svg width="94" height="94" viewBox="0 0 94 94" fill="none" xmlns="http://www.w3.org/2000/svg">
<path d="M59.9249 88.5286H32.5082C31.3332 88.5286 30.5499 87.7486 30.5499 86.9687V62.3991H5.87489C5.09156 62.3991 4.30823 61.6191 4.30823 60.4491V33.1496C4.30823 31.9796 5.09156 31.1996 5.87489 31.1996H30.5499V6.63004C30.5499 5.85006 31.3332 5.07007 32.5082 5.07007H59.9249C61.0999 5.07007 61.8832 5.85006 61.8832 6.63004V31.1996H86.5582C87.3416 31.1996 88.1249 31.9796 88.1249 33.1496V60.4491C88.1249 61.6191 87.3416 62.3991 86.5582 62.3991H61.8832V86.9687C61.8832 87.7486 61.0999 88.5286 59.9249 88.5286ZM34.4666 85.0187H58.3582V60.4491C58.3582 59.2791 59.1416 58.4991 60.3166 58.4991H84.9916V34.7096H60.3166C59.1416 34.7096 58.3582 33.9296 58.3582 32.7596V8.19001H34.4666V32.7596C34.4666 33.9296 33.6832 34.7096 32.5082 34.7096H7.83323V58.4991H32.5082C33.6832 58.4991 34.4666 59.2791 34.4666 60.4491V85.0187Z" fill="#00A398"/>
<path d="M83.0333 34.7099H56.4C55.6167 34.7099 54.4417 33.9299 54.4417 32.7599C54.4417 31.5899 55.225 30.8099 56.4 30.8099H83.0333C84.2083 30.8099 84.9917 31.5899 84.9917 32.7599C84.9917 33.9299 84.2083 34.7099 83.0333 34.7099Z" fill="#00A398"/>
<path d="M59.9248 85.0189C58.7498 85.0189 57.9664 84.2389 57.9664 83.0689V56.5494C57.9664 55.7694 58.7498 54.9894 59.9248 54.9894C61.0998 54.9894 61.8831 55.7694 61.8831 56.5494V83.0689C61.8831 84.2389 61.0998 85.0189 59.9248 85.0189Z" fill="#00A398"/>
<path d="M36.0333 62.009H9.39998C8.22498 62.009 7.44165 61.229 7.44165 60.059C7.44165 58.889 8.61665 58.499 9.39998 58.499H36.0333C36.8167 58.499 37.6 59.279 37.6 60.449C37.6 61.619 37.2083 62.009 36.0333 62.009Z" fill="#00A398"/>
<path d="M32.5081 38.2194C31.3331 38.2194 30.5498 37.4394 30.5498 36.2695V10.1399C30.5498 8.96993 31.3331 8.18994 32.5081 8.18994C33.6831 8.18994 34.4665 8.96993 34.4665 10.1399V36.6595C34.4665 37.4394 33.6831 38.2194 32.5081 38.2194Z" fill="#00A398"/>
</svg>
