<svg width="15" height="15" viewBox="0 0 15 15" fill="none" xmlns="http://www.w3.org/2000/svg">
<path fill-rule="evenodd" clip-rule="evenodd" d="M14.5055 0L10.0549 4.06829e-05C9.78181 4.31692e-05 9.56041 0.221441 9.56041 0.494546C9.56042 0.767652 9.78181 0.989045 10.0549 0.989043L13.3116 0.989013L6.57339 7.72733C6.38027 7.92044 6.38028 8.23354 6.57339 8.42666C6.76651 8.61977 7.07961 8.61977 7.27273 8.42665L14.011 1.68834L14.011 4.94501C14.011 5.21812 14.2324 5.43951 14.5055 5.43951C14.7786 5.43951 15 5.21811 15 4.94501L15 0.494496C15 0.221391 14.7786 -2.13889e-06 14.5055 0ZM0 1.64848C0 1.37537 0.221397 1.15397 0.494504 1.15397H6.42855C6.70166 1.15397 6.92306 1.37537 6.92306 1.64848C6.92306 1.92158 6.70166 2.14298 6.42855 2.14298H0.989008V14.011H12.8571V8.90116C12.8571 8.62805 13.0785 8.40666 13.3516 8.40666C13.6247 8.40666 13.8461 8.62805 13.8461 8.90116V14.5055C13.8461 14.7786 13.6247 15 13.3516 15H0.494504C0.221397 15 0 14.7786 0 14.5055V1.64848Z" fill="#0F6460"/>
</svg>
