<svg width="72" height="72" viewBox="0 0 72 72" fill="none" xmlns="http://www.w3.org/2000/svg">
    <path d="M26.9963 64.9358H22.7363C21.5267 64.9358 20.4827 64.115 20.1947 62.9366L19.6259 60.5558C18.1283 59.987 16.7507 59.1902 15.5171 58.1774L13.1699 58.871C12.0011 59.2118 10.7507 58.691 10.1651 57.671L8.03385 53.9846C7.42905 52.943 7.61625 51.6254 8.49465 50.7878L10.2707 49.0982C10.0115 47.5142 10.0091 45.9206 10.2659 44.3486L8.49945 42.6686C7.61865 41.8334 7.42665 40.5158 8.03625 39.467L10.1651 35.7758C10.7531 34.7558 12.0251 34.2422 13.1627 34.5758L15.5123 35.2718C16.1315 34.7654 16.7867 34.3094 17.4635 33.9182C18.1307 33.5294 18.8555 33.1886 19.6211 32.9006L20.1875 30.5318C20.4755 29.3486 21.5195 28.5254 22.7315 28.5254H26.9891C28.2035 28.5254 29.2499 29.3486 29.5331 30.5294L30.1043 32.8982C31.5947 33.4622 32.9699 34.259 34.2107 35.2742L36.5579 34.5782C37.7171 34.2326 38.9747 34.7582 39.5651 35.7758L41.6963 39.4694C42.3011 40.5254 42.1091 41.8406 41.2307 42.6734L39.4547 44.3582C39.7139 45.935 39.7163 47.5262 39.4595 49.1006L41.2331 50.783C42.1091 51.6206 42.2987 52.9334 41.6987 53.9798L39.5627 57.6782C38.9747 58.6958 37.7003 59.2118 36.5627 58.8782L34.2155 58.1846C33.5891 58.6982 32.9315 59.1542 32.2547 59.543C31.5731 59.9366 30.8507 60.2774 30.0995 60.5582L29.5259 62.9366C29.2571 64.1102 28.2131 64.9358 26.9963 64.9358ZM15.8003 55.643C16.0931 55.643 16.3787 55.7486 16.6019 55.9502C17.8835 57.1022 19.3667 57.9614 21.0131 58.5014C21.4091 58.631 21.7091 58.9574 21.8051 59.363L22.5251 62.3726C22.5467 62.4662 22.6331 62.5334 22.7339 62.5334H26.9915C27.0899 62.5334 27.1763 62.4662 27.1955 62.375L27.9251 59.3558C28.0235 58.9502 28.3259 58.6238 28.7219 58.4966C29.5427 58.2302 30.3299 57.8822 31.0619 57.4598C31.7843 57.0446 32.4803 56.5382 33.1331 55.9526C33.4427 55.6742 33.8795 55.5758 34.2755 55.6958L37.2419 56.5718L37.4867 56.4758L39.6203 52.7822C39.6683 52.7006 39.6515 52.5878 39.5795 52.5206L37.3355 50.3942C37.0355 50.1062 36.9011 49.6862 36.9875 49.2782C37.3355 47.615 37.3331 45.8558 36.9803 44.1878C36.8939 43.7798 37.0259 43.355 37.3283 43.0694L39.5795 40.9334C39.6515 40.8662 39.6659 40.7558 39.6155 40.6694L36.8987 35.7302L37.2395 36.8798L34.2683 37.7606C33.8675 37.8782 33.4355 37.7822 33.1259 37.5038C31.8323 36.347 30.3467 35.4878 28.7147 34.9526C28.3187 34.823 28.0187 34.499 27.9227 34.0934L27.1979 31.0886C27.1739 30.9902 27.0899 30.9254 26.9939 30.9254H22.7363C22.6355 30.9254 22.5515 30.995 22.5275 31.0934L21.8099 34.0958C21.7115 34.5014 21.4115 34.8278 21.0131 34.9574C20.1683 35.231 19.3835 35.579 18.6731 35.9918C17.9435 36.4142 17.2475 36.9206 16.6019 37.499C16.2899 37.7774 15.8627 37.8734 15.4595 37.7558L12.4907 36.8774L12.2459 36.9734L10.1147 40.6646C10.0643 40.7486 10.0811 40.859 10.1531 40.9262L12.3923 43.055C12.6947 43.343 12.8267 43.7654 12.7403 44.171C12.3899 45.8294 12.3923 47.591 12.7451 49.2686C12.8315 49.6766 12.6995 50.099 12.3971 50.3846L10.1483 52.5206C10.0787 52.5878 10.0595 52.6958 10.1075 52.7774L12.1787 56.5454L12.4835 56.5694L15.4547 55.691C15.5723 55.6598 15.6875 55.643 15.8003 55.643Z" fill="#162e51"/>
    <path d="M27.5541 53.733L22.1805 53.7306C21.3453 53.7306 20.5677 53.2794 20.1477 52.557L17.4597 47.9058C17.0421 47.1786 17.0421 46.2786 17.4597 45.5538L20.1477 40.8978C20.5701 40.173 21.3477 39.7266 22.1805 39.7266H27.5517C28.3941 39.7314 29.1717 40.1802 29.5893 40.9002L32.2773 45.5586C32.7021 46.2834 32.6973 47.1906 32.2653 47.9178L29.5893 52.557C29.1765 53.277 28.3989 53.7282 27.5637 53.733C27.5589 53.733 27.5565 53.733 27.5541 53.733ZM27.5109 42.1002L22.1805 42.1266L19.5405 46.7538L22.2261 51.357L27.5229 51.333L30.1917 46.7034L27.5109 42.1002Z" fill="#162e51"/>
    <path d="M24.8655 48.6978C23.7831 48.6978 22.9023 47.8146 22.9023 46.7298C22.9023 45.6474 23.7831 44.7666 24.8655 44.7666C25.9503 44.7666 26.8335 45.6474 26.8335 46.7298C26.8335 47.8122 25.9503 48.6978 24.8655 48.6978ZM24.8655 46.2978C24.6279 46.2978 24.4335 46.4922 24.4335 46.7298C24.4335 47.2122 25.2999 47.2074 25.2999 46.7298C25.2999 46.4898 25.1055 46.2978 24.8655 46.2978Z" fill="#162e51"/>
    <path d="M49.2595 43.4778H44.9995C43.7875 43.4778 42.7435 42.6522 42.4579 41.4738L41.8891 39.1002C40.3891 38.5314 39.0115 37.7346 37.7755 36.7194L35.4355 37.413C34.2691 37.749 33.0139 37.233 32.4283 36.2154L30.2971 32.5266C29.6947 31.4802 29.8843 30.1674 30.7579 29.3274L32.5363 27.6402C32.2771 26.0562 32.2747 24.4626 32.5339 22.8882L30.7675 21.213C29.8843 20.3778 29.6923 19.0578 30.3043 18.009L32.4307 14.3202C33.0235 13.3002 34.3003 12.7866 35.4307 13.1202L37.7803 13.8162C38.3995 13.3074 39.0547 12.8538 39.7339 12.4602C40.4035 12.0714 41.1283 11.7306 41.8891 11.445L42.4579 9.07138C42.7411 7.89298 43.7851 7.06978 44.9995 7.06978L49.2595 7.06738C50.4787 7.06738 51.5227 7.89298 51.8035 9.07618L52.3723 11.4426C53.8507 12.0066 55.2499 12.8154 56.4787 13.8186L58.8307 13.1226C59.9851 12.7794 61.2475 13.3002 61.8355 14.3202L63.9667 18.0138C64.5691 19.065 64.3771 20.3802 63.5011 21.2154L61.7275 22.9002C61.9843 24.4818 61.9867 26.073 61.7323 27.645L63.5059 29.3274C64.3843 30.1578 64.5763 31.473 63.9739 32.5242L61.8355 36.2226C61.2475 37.2402 59.9779 37.7538 58.8403 37.4226L56.4907 36.7266C55.8739 37.233 55.2163 37.689 54.5323 38.085C53.8435 38.4834 53.1187 38.8242 52.3723 39.1026L51.8011 41.4786C51.5131 42.6546 50.4691 43.4778 49.2595 43.4778ZM38.0611 34.1826C38.3539 34.1826 38.6395 34.2882 38.8627 34.4898C40.1443 35.6418 41.6299 36.5034 43.2763 37.0434C43.6723 37.173 43.9723 37.4994 44.0683 37.9026L44.7907 40.9098C44.8147 41.0082 44.8987 41.0754 44.9971 41.0754H49.2571C49.3531 41.0754 49.4395 41.0058 49.4611 40.9122L50.1859 37.9002C50.2843 37.4946 50.5867 37.1658 50.9851 37.0386C51.8011 36.777 52.5907 36.4266 53.3275 36.0018C54.0595 35.577 54.7555 35.0706 55.3963 34.4922C55.7059 34.2138 56.1403 34.1154 56.5411 34.233L59.5075 35.1114L59.7523 35.0154L61.8883 31.3218C61.9363 31.2402 61.9195 31.1298 61.8499 31.065L59.6035 28.9338C59.3035 28.6458 59.1691 28.2258 59.2555 27.8178C59.6059 26.1354 59.6059 24.4218 59.2483 22.7226C59.1619 22.3146 59.2939 21.8922 59.5963 21.6066L61.8451 19.473C61.9171 19.4058 61.9339 19.2954 61.8835 19.209L59.8555 15.5202L59.5075 15.4194L56.5315 16.3002C56.1307 16.4154 55.6987 16.3194 55.3891 16.0434C54.1171 14.9034 52.5907 14.0202 50.9779 13.4922C50.5819 13.3626 50.2819 13.0386 50.1835 12.633L49.4611 9.62818C49.4395 9.52978 49.3531 9.46258 49.2547 9.46258L44.9995 9.46498C44.8987 9.46498 44.8147 9.52978 44.7931 9.62578L44.0707 12.6354C43.9723 13.041 43.6723 13.3674 43.2763 13.4946C42.4339 13.7706 41.6467 14.1186 40.9339 14.5314C40.2019 14.9538 39.5083 15.4602 38.8651 16.0362C38.5579 16.317 38.1259 16.413 37.7203 16.2954L34.8163 15.3522L34.5043 15.5106L32.3755 19.2018C32.3251 19.2906 32.3419 19.3962 32.4139 19.4634L34.6531 21.5898C34.9555 21.8778 35.0875 22.3002 35.0011 22.7082C34.6483 24.393 34.6483 26.109 35.0059 27.8082C35.0923 28.2162 34.9603 28.6386 34.6579 28.9266L32.4091 31.0602C32.3371 31.1274 32.3203 31.2354 32.3683 31.3218L35.0875 36.2586L34.7467 35.109L37.7131 34.2306C37.8331 34.1994 37.9483 34.1826 38.0611 34.1826Z" fill="#162e51"/>
    <path d="M49.8172 32.2726L44.4459 32.2702C43.6155 32.2702 42.838 31.8238 42.4156 31.1086L39.7228 26.4478C39.3004 25.7206 39.3003 24.8182 39.7252 24.091L42.406 19.4422C42.8404 18.7126 43.6156 18.2686 44.4412 18.2686H49.8124C50.6476 18.2686 51.4276 18.7174 51.85 19.4374L54.538 24.0982C54.9556 24.823 54.9532 25.723 54.5332 26.4478L51.85 31.099C51.43 31.819 50.6524 32.2678 49.8244 32.2726C49.822 32.2726 49.8196 32.2726 49.8172 32.2726ZM49.7764 20.6422L44.4436 20.6686L41.8035 25.2934L44.4892 29.8966L49.7884 29.8702L52.4596 25.2406L49.7764 20.6422Z" fill="#162e51"/>
    <path d="M47.1297 27.2349C46.0449 27.2349 45.1641 26.3517 45.1641 25.2693C45.1641 24.1869 46.0473 23.3037 47.1297 23.3037C48.2121 23.3037 49.0929 24.1869 49.0929 25.2693C49.0929 26.3517 48.2121 27.2349 47.1297 27.2349ZM47.1297 24.8349C46.8897 24.8349 46.6929 25.0293 46.6929 25.2693C46.6929 25.7469 47.5617 25.7493 47.5617 25.2693C47.5641 25.0293 47.3697 24.8349 47.1297 24.8349Z" fill="#162e51"/>
</svg>
