<svg width="57" height="57" viewBox="0 0 57 57" fill="none" xmlns="http://www.w3.org/2000/svg">
<path d="M17.3532 39.7088L17.3205 39.6762C16.8847 39.2426 16.1799 39.2441 15.7461 39.68C15.3123 40.1159 15.314 40.8207 15.7499 41.2544L15.7863 41.2906C16.0034 41.5057 16.2866 41.613 16.5697 41.613C16.8564 41.613 17.143 41.5029 17.3607 41.2832C17.7934 40.8464 17.7901 40.1416 17.3532 39.7088Z" fill="#A23737"/>
<path d="M41.2531 15.7471C34.2212 8.71516 22.7793 8.71516 15.7474 15.7471C9.99085 21.5036 8.80443 30.4457 12.8621 37.4926C13.1689 38.0254 13.8497 38.2085 14.3824 37.9018C14.9152 37.595 15.0985 36.9144 14.7917 36.3815C11.2353 30.2054 12.2758 22.3677 17.3218 17.3215C23.4856 11.1577 33.5149 11.1577 39.6786 17.3215C45.8424 23.4853 45.8424 33.5145 39.6786 39.6783C34.6018 44.7551 26.7314 45.7765 20.5392 42.1624C20.008 41.8523 19.3264 42.0315 19.0164 42.5627C18.7065 43.0937 18.8857 43.7755 19.4168 44.0854C22.2422 45.7345 25.3732 46.5377 28.4846 46.5377C33.1535 46.5377 37.7776 44.7282 41.2531 41.2527C48.2849 34.2208 48.2849 22.779 41.2531 15.7471Z" fill="#A23737"/>
<path d="M56.9961 23.6085C56.9959 23.0611 56.5977 22.5949 56.0571 22.5093L51.9476 21.8582L49.7675 16.6005L52.2103 13.2323C52.5317 12.7893 52.4833 12.1782 52.0961 11.7913L45.1914 4.89131C44.8041 4.50434 44.193 4.45624 43.7502 4.77809L40.3853 7.22252L35.1239 5.0455L34.47 0.938162C34.3838 0.397775 33.9178 0 33.3705 0C33.3704 0 33.3702 0 33.37 0L23.6085 0.00400781C23.0611 0.00423047 22.595 0.402451 22.5093 0.943061L21.8583 5.05252L16.6006 7.23265L13.2325 4.78978C12.7895 4.46838 12.1784 4.5168 11.7914 4.904L4.89142 11.8087C4.50445 12.196 4.45647 12.8071 4.7782 13.2499L7.22263 16.6148L5.04561 21.8762L0.938274 22.5301C0.397664 22.6162 0 23.0826 0 23.63L0.00400791 33.3914C0.00423056 33.9388 0.402451 34.405 0.943061 34.4906L5.05252 35.1417L7.23265 40.3994L4.78978 43.7675C4.46838 44.2106 4.5168 44.8217 4.904 45.2086L11.8087 52.1086C12.196 52.4956 12.8072 52.5436 13.2499 52.2218L16.6148 49.7774L21.8762 51.9544L22.5301 56.0617C22.6162 56.6022 23.0822 57 23.6295 57C23.6296 57 23.6298 57 23.63 57L33.3914 56.9959C33.9388 56.9957 34.4048 56.5974 34.4906 56.0568L35.1417 51.9474L40.3994 49.7672L43.7675 52.2101C44.2106 52.5316 44.8217 52.4831 45.2086 52.0959L52.1086 45.1912C52.4956 44.8039 52.5435 44.1928 52.2218 43.7499L49.7774 40.3851L51.9544 35.1237L56.0617 34.4697C56.6023 34.3837 57 33.9173 57 33.3699L56.9961 23.6085ZM50.9891 33.0228C50.6067 33.0837 50.2835 33.3388 50.1354 33.6966L47.4819 40.1095C47.3338 40.4672 47.3824 40.8762 47.6099 41.1895L49.862 44.2896L44.3056 49.8497L41.2023 47.599C40.889 47.3717 40.48 47.3237 40.1222 47.4718L33.7133 50.1294C33.3557 50.2777 33.1007 50.6011 33.0402 50.9835L32.4402 54.7697L24.5797 54.773L23.9772 50.989C23.9163 50.6065 23.6612 50.2834 23.3034 50.1353L16.8905 47.4818C16.7534 47.425 16.6088 47.3972 16.465 47.3972C16.2334 47.3972 16.0038 47.4694 15.8106 47.6098L12.7106 49.8619L7.15038 44.3055L9.4011 41.2022C9.62844 40.8888 9.67653 40.4798 9.52824 40.1221L6.87073 33.7132C6.72244 33.3556 6.39903 33.1006 6.01662 33.0401L2.23035 32.4401L2.22712 24.5796L6.01116 23.9771C6.39357 23.9162 6.71676 23.6611 6.86483 23.3033L9.51833 16.8904C9.6664 16.5327 9.61786 16.1237 9.3903 15.8104L7.13825 12.7103L12.6946 7.15016L15.7979 9.40088C16.1114 9.62821 16.5203 9.67653 16.878 9.52813L23.2869 6.8705C23.6445 6.72221 23.8995 6.39869 23.96 6.01639L24.5599 2.23012L32.4205 2.2269L33.023 6.01094C33.0839 6.39335 33.339 6.71654 33.6968 6.8646L40.1097 9.51811C40.4674 9.66595 40.8765 9.61764 41.1897 9.39008L44.2898 7.13803L49.85 12.6944L47.5992 15.7977C47.3719 16.1111 47.3238 16.5201 47.4721 16.8778L50.1296 23.2867C50.2779 23.6443 50.6013 23.8993 50.9837 23.9598L54.77 24.5598L54.7732 32.4203L50.9891 33.0228Z" fill="#A23737"/>
<path d="M38.6419 29.8873C37.2495 28.6223 35.3783 28.0729 33.5311 28.3603L28.642 23.4711C28.9393 21.5345 28.3006 19.5415 26.9007 18.1414C25.1455 16.3862 22.5212 15.8486 20.2152 16.7716C19.8677 16.9107 19.6135 17.2149 19.5383 17.5814C19.4631 17.9479 19.5771 18.3278 19.8417 18.5924L21.4559 20.2067C21.7976 20.5483 21.7976 21.1043 21.4559 21.4461C21.1143 21.7878 20.5583 21.7878 20.2165 21.4461L18.5967 19.8261C18.3326 19.5621 17.9541 19.4478 17.588 19.5223C17.222 19.5966 16.9177 19.8494 16.7776 20.1955C15.8069 22.5926 16.4421 25.3726 18.3579 27.1132C19.7517 28.3798 21.6244 28.9291 23.4735 28.6396L28.3583 33.5245C28.059 35.4627 28.6974 37.4576 30.0989 38.8592C31.2849 40.0452 32.8651 40.675 34.4767 40.675C35.2583 40.675 36.0476 40.5267 36.8024 40.2218C37.1488 40.0819 37.4019 39.7776 37.4764 39.4115C37.5509 39.0455 37.4369 38.6665 37.1727 38.4023L35.5658 36.7953C35.2241 36.4537 35.2241 35.8977 35.5658 35.5559C35.9074 35.2141 36.4634 35.2141 36.8052 35.5559L38.4089 37.1596C38.6733 37.424 39.0529 37.5382 39.4194 37.4631C39.7859 37.388 40.09 37.1341 40.2293 36.787C41.1892 34.3948 40.5513 31.622 38.6419 29.8873ZM38.3795 33.9816C37.1696 32.7718 35.201 32.7717 33.9912 33.9816C32.7814 35.1915 32.7814 37.16 33.9912 38.3698L34.0455 38.4243C33.1664 38.3279 32.3264 37.938 31.6732 37.2848C30.6745 36.2861 30.2807 34.8165 30.6457 33.4494C30.7483 33.0654 30.6384 32.656 30.3574 32.375L24.6227 26.6403C24.4111 26.4288 24.1268 26.3142 23.8354 26.3142C23.7403 26.3142 23.6443 26.3264 23.55 26.3514C22.2316 26.7015 20.8502 26.37 19.8548 25.4656C19.1237 24.8011 18.6834 23.9006 18.578 22.9566L18.642 23.0206C19.8519 24.2304 21.8204 24.2305 23.0303 23.0206C24.2401 21.8107 24.2401 19.8422 23.0303 18.6324L22.9777 18.5797C23.8483 18.6806 24.6796 19.0692 25.3262 19.716C26.3238 20.7136 26.7178 22.1819 26.3545 23.5479C26.2524 23.9316 26.3624 24.3406 26.6432 24.6214L32.3812 30.3594C32.6616 30.6397 33.0695 30.7499 33.4529 30.6486C34.77 30.3005 36.1501 30.6321 37.1445 31.5354C37.8689 32.1936 38.308 33.0848 38.4182 34.0204L38.3795 33.9816Z" fill="#A23737"/>
<path d="M38.6685 20.5502C36.8337 18.2064 34.2326 16.5577 31.3442 15.9078C30.7446 15.7728 30.1486 16.1496 30.0137 16.7495C29.8788 17.3495 30.2555 17.9451 30.8555 18.08C33.2442 18.6175 35.3963 19.9822 36.9153 21.9227C37.1349 22.2033 37.4621 22.3498 37.7927 22.3498C38.0327 22.3498 38.2745 22.2725 38.4781 22.1131C38.9623 21.7342 39.0475 21.0343 38.6685 20.5502Z" fill="#A23737"/>
<path d="M40.7967 24.5649L40.7804 24.5145C40.5915 23.9294 39.9642 23.6085 39.3789 23.7972C38.7938 23.9862 38.4726 24.6136 38.6616 25.1988L38.6758 25.2424C38.8268 25.7154 39.2647 26.0172 39.7359 26.0172C39.8482 26.0172 39.9624 26.0001 40.0749 25.9641C40.6606 25.777 40.9838 25.1506 40.7967 24.5649Z" fill="#A23737"/>
</svg>
