<svg width="57" height="58" viewBox="0 0 57 58" fill="none" xmlns="http://www.w3.org/2000/svg">
<path d="M50.4345 40.9311C50.1219 40.7992 49.7621 40.8721 49.5227 41.1155L40.3798 50.4189C40.1405 50.6624 40.069 51.0285 40.1985 51.3466C40.3279 51.6648 40.6332 51.8722 40.9715 51.8722H50.1144C50.5765 51.8722 50.9511 51.4911 50.9511 51.0208V41.7175C50.9509 41.3732 50.7471 41.0628 50.4345 40.9311ZM42.991 50.1697L49.2776 43.7728V50.1697H42.991Z" fill="#A23737"/>
<path d="M56.4836 27.2861C56.1709 27.1542 55.8111 27.2271 55.5718 27.4705L53.0661 30.0201V12.6846C53.0661 12.2144 52.6915 11.8333 52.2295 11.8333H45.8013L48.1347 9.4589C48.1351 9.45856 48.1354 9.45811 48.1357 9.45777L50.3841 7.16994C50.8658 6.67977 51.1311 6.02773 51.1311 5.33445C51.1311 4.64116 50.8658 3.98934 50.3841 3.49895L47.7841 0.853379C47.3024 0.363211 46.6616 0.0932617 45.9803 0.0932617C45.299 0.0932617 44.6583 0.363211 44.1764 0.853379L41.927 3.14234L39.2088 5.90821L33.386 11.8332H7.41668V3.41127C7.41668 2.94104 7.04206 2.55996 6.58005 2.55996C2.95187 2.56019 0 5.56361 0 9.25568V45.4135C0 45.4763 0.007125 45.5375 0.0198164 45.5964C0.135375 47.163 0.801451 48.6185 1.91462 49.7235C3.1045 50.9043 4.67522 51.5547 6.33758 51.5547H31.9027L27.0879 56.454C26.8487 56.6975 26.7771 57.0635 26.9066 57.3817C27.036 57.6998 27.3412 57.9073 27.6795 57.9073H56.1634C56.6254 57.9073 57 57.5262 57 57.056V28.0726C57 27.7283 56.796 27.4178 56.4836 27.2861ZM45.3599 2.05745C45.7019 1.70922 46.2591 1.70922 46.6011 2.05745L49.2011 4.70313C49.5434 5.05124 49.5434 5.61799 49.2011 5.96622L47.5433 7.6532L43.7019 3.74443L45.3599 2.05745ZM42.5187 4.94838L46.36 8.85704L44.8249 10.4191L40.9838 6.51042L42.5187 4.94838ZM55.327 37.6383H53.7834C53.3213 37.6383 52.9468 38.0194 52.9468 38.4896C52.9468 38.9598 53.3213 39.3409 53.7834 39.3409H55.327V41.9063H53.7834C53.3213 41.9063 52.9468 42.2874 52.9468 42.7576C52.9468 43.2278 53.3213 43.6089 53.7834 43.6089H55.327V46.1741H53.7834C53.3213 46.1741 52.9468 46.5552 52.9468 47.0255C52.9468 47.4957 53.3213 47.8768 53.7834 47.8768H55.327V50.4421H53.7834C53.3213 50.4421 52.9468 50.8233 52.9468 51.2934C52.9468 51.7637 53.3213 52.1448 53.7834 52.1448H55.327V56.205H29.6992L38.1499 47.6061C38.4767 47.2735 38.4767 46.7347 38.1499 46.4022C38.1124 46.364 38.0721 46.3309 38.0299 46.3015C37.7042 46.0745 37.256 46.1079 36.9666 46.4022L33.576 49.8523H6.33769C3.8003 49.8523 1.75765 47.8366 1.67727 45.2593C1.68206 45.0975 1.69441 44.9371 1.71423 44.7785C1.71434 44.7776 1.71445 44.7767 1.71456 44.7758C1.72392 44.7005 1.73516 44.6255 1.74796 44.5509C1.74941 44.5424 1.75097 44.534 1.75242 44.5255C1.76411 44.459 1.77724 44.3928 1.7916 44.3269C1.79561 44.3085 1.79984 44.2902 1.80407 44.2719C1.81676 44.2162 1.83046 44.1608 1.84515 44.1056C1.85317 44.0757 1.86152 44.0462 1.87009 44.0164C1.88234 43.9731 1.89503 43.9299 1.9085 43.8872C1.92197 43.8445 1.93633 43.8023 1.95091 43.76C1.96104 43.7304 1.97106 43.7009 1.98197 43.6715C2.00235 43.6158 2.02395 43.5606 2.04621 43.5059C2.05256 43.4902 2.05879 43.4742 2.06536 43.4585C2.09397 43.3905 2.1237 43.3233 2.15509 43.2569C2.15643 43.2541 2.15765 43.2513 2.15899 43.2484C2.81337 41.8705 4.07194 40.8431 5.58233 40.5244C5.58656 40.5235 5.59079 40.5224 5.59502 40.5215C5.66426 40.5071 5.73418 40.4948 5.80454 40.4834C5.81623 40.4814 5.82792 40.479 5.83983 40.4772C5.9034 40.4674 5.96763 40.4597 6.03187 40.4523C6.0499 40.4503 6.06783 40.4474 6.08597 40.4456C6.14798 40.4393 6.21055 40.4351 6.27312 40.4311C6.29293 40.4299 6.31275 40.4277 6.33257 40.4267C6.4145 40.4225 6.49711 40.4204 6.58005 40.4204C7.04206 40.4204 7.41668 40.0393 7.41668 39.5691V33.3965C7.41668 32.9262 7.04206 32.5452 6.58005 32.5452C6.11804 32.5452 5.74342 32.9262 5.74342 33.3965V38.7713C4.33066 38.9531 3.01933 39.5943 1.98531 40.6218C1.87655 40.7299 1.77346 40.8422 1.67304 40.9564V9.25568C1.67304 6.79283 3.43492 4.74051 5.74331 4.33519V12.6846V29.9914V29.9915C5.74331 30.4616 6.11793 30.8428 6.57994 30.8428C7.04195 30.8428 7.41657 30.4616 7.41657 29.9915V29.9914V13.5359H31.7128L27.0878 18.2421C26.7611 18.5746 26.7611 19.1135 27.0878 19.446C27.4146 19.7784 27.9443 19.7784 28.2709 19.446L34.3241 13.2866C34.3244 13.2863 34.3245 13.2861 34.3247 13.286L39.8004 7.71426L43.6415 11.623L43.1909 12.0816C43.1905 12.0819 43.1901 12.0823 43.1897 12.0826L26.3204 29.2481L22.4792 25.3395L25.8043 21.956C26.131 21.6234 26.131 21.0845 25.8043 20.752C25.4776 20.4197 24.9479 20.4197 24.6212 20.752L20.7044 24.7375C20.6834 24.7588 20.6638 24.7813 20.6455 24.8044C20.6393 24.8121 20.6339 24.8204 20.6281 24.8284C20.6163 24.8444 20.6047 24.8605 20.5939 24.8773C20.5878 24.887 20.5822 24.897 20.5764 24.9071C20.5672 24.9229 20.5583 24.939 20.5502 24.9554C20.5448 24.9661 20.54 24.9768 20.5351 24.9879C20.5277 25.0046 20.5208 25.0216 20.5144 25.0386C20.5122 25.0446 20.5093 25.0503 20.5072 25.0563L18.8772 29.7546L17.766 32.9581C17.7513 33.0007 17.7407 33.0439 17.7328 33.0876H14.9505C14.4885 33.0876 14.1138 33.4686 14.1138 33.9389C14.1138 34.4091 14.4885 34.7902 14.9505 34.7902H38.1194C38.5815 34.7902 38.956 34.4091 38.956 33.9389C38.956 33.4686 38.5815 33.0876 38.1194 33.0876H21.4967L26.5988 31.2549C26.6031 31.2533 26.6071 31.2512 26.6113 31.2496C26.6311 31.2421 26.6506 31.2337 26.6699 31.2248C26.6776 31.2211 26.6852 31.2177 26.6927 31.214C26.7127 31.2038 26.7324 31.1926 26.7518 31.1806C26.758 31.1767 26.7645 31.1732 26.7706 31.1693C26.7908 31.1561 26.8104 31.1417 26.8296 31.1265C26.8344 31.1228 26.8394 31.1195 26.8441 31.1157C26.8674 31.0966 26.8902 31.0761 26.9118 31.0542L44.128 13.536H51.3927V31.7229L39.4254 43.9003C39.0987 44.2328 39.0987 44.7717 39.4254 45.1042C39.4458 45.1249 39.467 45.1444 39.489 45.1627C39.6424 45.2899 39.8298 45.3535 40.017 45.3535C40.2043 45.3535 40.3917 45.2899 40.545 45.1627C40.567 45.1445 40.5882 45.1249 40.6086 45.1042C40.6089 45.1039 40.6086 45.1042 40.6089 45.1039L55.327 30.1275V37.6383ZM24.7902 30.0987L22.3938 30.9596L20.7971 29.3349L21.6431 26.8964L24.7902 30.0987Z" fill="#A23737"/>
</svg>
