<svg width="72" height="72" viewBox="0 0 72 72" fill="none" xmlns="http://www.w3.org/2000/svg">
    <path d="M21.5293 56.8591C21.1344 56.8591 20.7414 56.7563 20.3958 56.5588L17.0859 54.6559C16.5511 54.3494 16.1684 53.8516 16.008 53.255C15.8475 52.6625 15.9298 52.0454 16.2363 51.5167L31.5579 24.852C32.1668 23.7947 33.648 23.3956 34.6992 24.0127L37.9988 25.8991C39.0973 26.5327 39.48 27.9398 38.8525 29.0383L23.5309 55.7071C23.1154 56.4209 22.3501 56.8591 21.5293 56.8591ZM33.541 25.7798C33.4381 25.7798 33.3785 25.8127 33.3414 25.8765L18.0178 52.5453L18.1124 52.8724L21.5293 54.802C21.6013 54.802 21.698 54.7691 21.7494 54.6765L37.0669 28.0159C37.1307 27.9028 37.0896 27.7505 36.9764 27.6827L33.6706 25.7921C33.6212 25.7839 33.578 25.7798 33.541 25.7798Z" fill="#A23737"/>
    <path d="M57.3167 44.0846H51.1514C50.5836 44.0846 50.1228 43.6238 50.1228 43.056C50.1228 42.4882 50.5836 42.0274 51.1514 42.0274H57.1377C57.2755 41.8464 57.436 41.435 57.436 41.2292V35.3376L46.636 35.2183C46.0682 35.2183 45.6074 34.7575 45.6074 34.1897C45.6074 33.6219 46.0682 33.1611 46.636 33.1611H57.3167C58.516 33.1611 59.4931 34.1383 59.4931 35.3376V41.2292C59.4931 42.2249 58.7464 44.0846 57.3167 44.0846Z" fill="#A23737"/>
    <path d="M39.8995 35.2183H34.843C34.2753 35.2183 33.8145 34.7575 33.8145 34.1897C33.8145 33.6219 34.2753 33.1611 34.843 33.1611H39.8995C40.4673 33.1611 40.9281 33.6219 40.9281 34.1897C40.9281 34.7575 40.4673 35.2183 39.8995 35.2183Z" fill="#A23737"/>
    <path d="M44.4142 44.0845H30.1829C29.6151 44.0845 29.1543 43.6237 29.1543 43.0559C29.1543 42.4881 29.6151 42.0273 30.1829 42.0273H44.4142C44.982 42.0273 45.4428 42.4881 45.4428 43.0559C45.4428 43.6237 44.982 44.0845 44.4142 44.0845Z" fill="#A23737"/>
    <path d="M21.9522 44.0846H14.6863C13.2566 44.0846 12.5078 42.227 12.5078 41.2292V35.3376C12.5078 34.1383 13.485 33.1611 14.6863 33.1611H26.5951C27.1629 33.1611 27.6237 33.6219 27.6237 34.1897C27.6237 34.7575 27.1629 35.2183 26.5951 35.2183H14.6863L14.565 41.2292C14.565 41.435 14.7254 41.8464 14.8632 42.0274H21.9522C22.5199 42.0274 22.9807 42.4882 22.9807 43.056C22.9807 43.6238 22.5199 44.0846 21.9522 44.0846Z" fill="#A23737"/>
    <path d="M16.0837 61.0879C15.6723 61.0879 15.2979 60.9213 15.0284 60.621C14.8103 60.3762 14.5676 59.9318 14.6519 59.2057L15.2238 54.2335C15.3781 52.8717 16.8058 52.1373 18.0071 52.8285L21.3068 54.7211C21.9095 55.0646 22.2716 55.6159 22.2942 56.2331C22.3168 56.8502 22 57.4262 21.4261 57.815L17.1575 60.7259C16.7955 60.9666 16.4375 61.0879 16.0837 61.0879ZM17.2357 54.7581L16.8078 58.4692L19.9614 56.3236L17.2357 54.7581Z" fill="#A23737"/>
    <path d="M48.3767 48.5668C47.8953 48.5668 47.3276 48.4433 46.6281 48.0957C46.1591 47.8591 44.931 47.2379 37.1838 29.2461C36.9596 28.7256 37.2003 28.1188 37.7228 27.8945C38.2412 27.6724 38.8501 27.911 39.0743 28.4335C43.2791 38.1988 46.8071 45.5551 47.6547 46.3245C48.3006 46.631 48.4755 46.559 49.1296 46.2731L49.4094 46.1537C49.8846 45.9563 50.4709 45.4913 50.6231 45.0573C50.6663 44.9339 50.6931 44.7734 50.5614 44.5348C50.5491 44.5121 50.4729 44.3681 50.4627 44.3435C50.3187 44.0884 49.9916 43.4671 49.5575 42.6381L48.2245 40.0934C48.2224 40.0893 48.1257 39.9041 48.1216 39.9L47.9632 39.5956C47.8995 39.4845 47.8419 39.3734 47.7843 39.252L47.1363 38.0301C47.1321 38.0198 47.0334 37.8388 47.0293 37.8285C43.8016 31.7291 41.44 27.4893 40.0206 25.2491C39.0908 23.7823 38.0704 22.0296 37.0624 20.2975C35.894 18.2897 34.2915 15.5373 33.1971 14.015C33.8656 16.679 36.2293 21.9741 37.3628 24.5167L37.8092 25.5165C38.0396 26.0349 37.8071 26.6438 37.2867 26.8742C36.7621 27.1025 36.1593 26.868 35.9289 26.3517L35.4846 25.356C31.144 15.6299 29.9468 12.0072 31.8723 11.0507C33.4851 10.2463 34.923 12.5318 38.8398 19.2628C39.8334 20.9723 40.8414 22.7003 41.7568 24.1485C43.2051 26.436 45.5934 30.7211 48.856 36.8884L50.0368 39.1224L49.1296 39.6079L50.0368 39.1224L51.3781 41.6836C51.8039 42.4961 52.1228 43.103 52.2997 43.4219C52.7523 44.2468 52.8201 45.0059 52.563 45.7382C52.1598 46.8902 51.0366 47.7069 50.1973 48.0545L49.9463 48.1615C49.4958 48.3569 49.0083 48.5668 48.3767 48.5668Z" fill="#A23737"/>
    <path d="M51.8267 54.0775C50.9874 54.0775 50.1872 53.6394 49.7366 52.9358L47.7412 49.7863C47.3853 49.2227 47.2804 48.5438 47.4512 47.9226C47.6219 47.3075 48.0313 46.8076 48.6093 46.5114L50.506 45.5342C51.656 44.95 53.1494 45.4478 53.7501 46.5834L55.328 49.6156C55.9307 50.7779 55.5172 52.259 54.4084 52.9214L53.0589 53.7361C52.6866 53.9623 52.2608 54.0775 51.8267 54.0775ZM51.584 47.3342L49.5494 48.3422C49.4178 48.5356 49.4342 48.6138 49.4816 48.6878L51.4729 51.8311C51.5613 51.969 51.7136 52.0204 51.8267 52.0204C51.8925 52.0204 51.9501 52.006 52.0016 51.9751L53.3531 51.1585C53.5403 51.0474 53.6102 50.7655 53.5074 50.566L51.9337 47.542C51.8576 47.4001 51.7033 47.3342 51.584 47.3342Z" fill="#A23737"/>
    <path d="M57.3983 60.6465C56.954 60.6465 56.5549 60.3585 56.4191 59.9286C56.3101 59.7208 55.4954 59.3731 55.0079 59.1654C53.8703 58.6799 52.4529 58.0751 51.5396 56.7894C50.2765 55.0079 50.3896 53.3889 51.8769 51.9757C51.9386 51.9181 52.0477 51.8275 52.1217 51.7864C54.1192 50.6611 55.8205 50.7887 56.9581 52.0435C58.9041 54.1912 58.4783 59.1571 58.4228 59.7167C58.3754 60.2042 57.9908 60.5889 57.5053 60.6403C57.4682 60.6445 57.4333 60.6465 57.3983 60.6465ZM53.2408 53.5206C52.7553 53.9896 52.3994 54.4463 53.2182 55.6024C53.7942 56.415 54.8228 56.8531 55.8164 57.2769C56.0262 57.3654 56.234 57.4538 56.4356 57.5464C56.3924 55.948 56.127 54.1912 55.4317 53.4259C54.9482 52.8911 54.2529 52.9775 53.2408 53.5206Z" fill="#A23737"/>
</svg>
