<svg width="108" height="108" viewBox="0 0 108 108" fill="none" xmlns="http://www.w3.org/2000/svg">
<path d="M82.35 46.3501C78.3 46.3501 74.7 44.5501 71.55 41.8501L71.1 41.4001C66.6 43.2001 61.65 42.3001 58.05 38.7001L54.45 35.1001C52.2 32.8501 50.85 29.7001 50.85 26.5501C50.85 23.4001 52.2 20.2501 54.45 18.0001L58.5 14.4001C61.65 11.25 67.05 10.35 71.55 11.7L72 11.25C77.85 5.40005 87.75 5.40005 93.15 11.25L98.1 16.2001C101.25 19.3501 102.6 22.9501 102.6 26.5501C102.6 30.6001 101.25 34.2001 98.1 37.3501L93.15 42.3001C90 45.0001 86.4 46.3501 82.35 46.3501ZM71.55 36.9001C72 36.9001 72.9 36.9001 73.35 37.3501L74.7 39.1501C78.75 43.2001 85.95 43.2001 90 39.1501L94.95 34.2001C97.2 31.9501 98.1 29.7001 98.1 26.5501C98.1 23.8501 97.2 21.1501 94.95 18.9001L90 13.95C85.95 9.90005 78.75 9.90005 74.7 13.95L73.35 15.7501C72.45 16.6501 71.55 16.6501 70.65 16.2001C67.5 14.4 63.45 15.3001 61.2 17.5501L57.6 21.1501C56.25 22.5001 55.35 24.7501 55.35 26.5501C55.35 28.8001 56.25 30.6001 57.6 31.9501L61.2 36.0001C63.9 38.7001 67.95 39.1501 70.65 37.3501C71.1 36.9001 71.55 36.9001 71.55 36.9001Z" fill="#00A398"/>
<path d="M72.9 40.9503L70.65 37.3503C72.9 36.0003 73.8 33.3003 73.35 31.0503L77.4 30.1503C78.75 33.7503 76.5 38.7003 72.9 40.9503Z" fill="#00A398"/>
<path d="M68.85 22.95C67.05 19.8 67.5 15.3 70.2 13.05L73.35 15.75C72 17.1 71.55 19.35 72.45 21.15L68.85 22.95Z" fill="#00A398"/>
<path d="M100.35 101.25H6.75C5.4 101.25 4.5 99.9001 4.5 99.0001V55.3501C4.5 54.0001 5.4 53.1001 6.75 53.1001C53.55 53.1001 93.6 72.0001 102.15 97.6501C102.6 98.5501 102.15 99.0001 101.7 99.4501C101.25 100.8 100.8 101.25 100.35 101.25ZM8.55 97.2001H97.2C87.75 74.2501 51.3 58.0501 8.55 58.0501V97.2001Z" fill="#00A398"/>
<path d="M79.65 101.25H6.75C5.4 101.25 4.5 99.9 4.5 99V64.8C4.5 63.9 5.4 63 6.75 63C43.2 63 74.7 77.85 81.45 98.1C81.9 99 81.45 99.45 81 99.9C80.55 100.8 80.1 101.25 79.65 101.25ZM8.55 97.2H76.5C68.4 80.1 40.95 67.95 8.55 67.5V97.2Z" fill="#00A398"/>
<path d="M55.8 101.25H6.75C5.4 101.25 4.5 99.9 4.5 99V76.05C4.5 75.15 5.4 74.25 6.75 74.25C31.5 74.25 53.1 84.6 57.6 98.55C58.05 99.45 57.6 99.9 57.15 100.35C57.15 100.8 56.25 101.25 55.8 101.25ZM8.55 97.2H52.65C46.8 86.4 29.25 78.75 8.55 78.3V97.2Z" fill="#00A398"/>
<path d="M33.3 101.25H6.3C5.4 101.25 4.5 99.9003 4.5 99.0003V86.4003C4.5 85.0503 5.4 84.1503 6.75 84.1503C21.15 84.1503 32.85 90.0003 35.55 98.1003C36 99.0003 35.55 99.4503 35.1 99.9003C34.65 100.8 34.2 101.25 33.3 101.25ZM8.55 97.2003H30.15C26.55 92.7003 18.45 89.1003 8.55 88.6503V97.2003Z" fill="#00A398"/>
<path d="M100.35 101.25C99.45 101.25 98.55 100.8 98.55 99.9C93.6 85.05 76.95 72 53.1 64.35C52.2 63.9 51.75 63 51.75 62.55C51.75 61.65 52.2 60.75 53.1 60.75C67.5 56.25 83.7 54 100.35 54C101.25 54 102.6 54.9 102.6 56.25V99C102.15 99.9 101.25 100.8 100.35 101.25ZM60.3 62.55C77.85 69.3 91.35 78.75 98.55 90V57.6C85.05 57.6 72 59.4 60.3 62.55Z" fill="#00A398"/>
<path d="M27 6.30005H22.95V11.7001H27V6.30005Z" fill="#00A398"/>
<path d="M36.45 17.5501L33.75 14.85L37.8 10.8L40.5 13.95L36.45 17.5501Z" fill="#00A398"/>
<path d="M45 24.75H39.6V28.8H45V24.75Z" fill="#00A398"/>
<path d="M10.35 24.75H4.5V28.8H10.35V24.75Z" fill="#00A398"/>
<path d="M13.05 17.5501L9 13.95L11.7 10.8L15.75 14.85L13.05 17.5501Z" fill="#00A398"/>
<path d="M27 41.3998H22.95V46.7998H27V41.3998Z" fill="#00A398"/>
<path d="M11.7 42.3L9 39.6L13.05 35.55L15.75 38.25L11.7 42.3Z" fill="#00A398"/>
<path d="M10.35 24.75H4.5V28.8H10.35V24.75Z" fill="#00A398"/>
<path d="M45 24.75H39.6V28.8H45V24.75Z" fill="#00A398"/>
<path d="M37.8 42.3L33.75 38.25L36.45 35.55L40.5 39.6L37.8 42.3Z" fill="#00A398"/>
<path d="M24.75 36.4503C19.35 36.4503 14.85 31.9503 14.85 26.5503C14.85 21.1503 19.35 16.6503 24.75 16.6503C30.15 16.6503 34.65 21.1503 34.65 26.5503C34.65 31.9503 30.15 36.4503 24.75 36.4503ZM24.75 20.7003C21.6 20.7003 18.9 23.4003 18.9 26.5503C18.9 30.1503 21.6 32.4003 24.75 32.4003C27.9 32.4003 30.6 29.7003 30.6 26.5503C30.6 23.4003 27.9 20.7003 24.75 20.7003Z" fill="#00A398"/>
</svg>
