<svg width="57" height="64" viewBox="0 0 57 64" fill="none" xmlns="http://www.w3.org/2000/svg">
<path d="M28.416 38.451C28.9369 38.451 29.359 38.0348 29.359 37.5215V36.7178C30.4155 36.3373 31.1718 35.3368 31.1718 34.1654C31.1718 32.6677 29.9355 31.4492 28.416 31.4492C26.8964 31.4492 25.6602 32.6677 25.6602 34.1654C25.6602 35.3368 26.4165 36.3374 27.473 36.7178V37.5215C27.473 38.0348 27.8952 38.451 28.416 38.451ZM28.416 33.3082C28.8956 33.3082 29.2857 33.6927 29.2857 34.1654C29.2857 34.6381 28.8956 35.0227 28.416 35.0227C27.9365 35.0227 27.5462 34.6381 27.5462 34.1654C27.5462 33.6927 27.9365 33.3082 28.416 33.3082Z" fill="#A23737"/>
<path d="M54.7996 21.003C56.6366 19.9578 57.3507 17.6686 56.2931 15.8633C55.2494 14.0811 52.8944 13.5078 51.0305 14.5682C49.4465 15.4696 48.7351 17.2535 49.1716 18.8426L44.7568 21.355C41.452 16.3143 35.8137 12.8931 29.3602 12.5877V7.56762C30.9837 7.13943 32.1864 5.63268 32.1864 3.84472C32.1864 1.72475 30.4956 0 28.4172 0C26.3388 0 24.6479 1.72475 24.6479 3.84472C24.6479 5.63268 25.8506 7.13943 27.4742 7.56762V12.5877C21.0206 12.8931 15.3825 16.3143 12.0776 21.355L7.66274 18.8426C8.09653 17.2638 7.39744 15.4749 5.80387 14.5682C3.9411 13.5083 1.58042 14.0893 0.541218 15.8632C-0.51609 17.6681 0.196829 19.9573 2.0347 21.003C3.62312 21.907 5.54536 21.6162 6.71972 20.4525L11.1318 22.9632C9.75497 25.5909 8.97642 28.5708 8.97642 31.7265C8.97642 34.8823 9.75485 37.862 11.1318 40.4898L6.71884 43.0012C4.66119 40.9716 1.03196 41.941 0.20387 44.7315C-0.499367 47.1015 1.27614 49.4171 3.81059 49.4171C5.49934 49.4171 7.12535 48.3211 7.63495 46.6038C7.83273 45.9374 7.8394 45.2533 7.66286 44.6107L12.0777 42.0984C15.3825 47.139 21.0207 50.5603 27.4743 50.8656V55.8857C25.8508 56.3139 24.6481 57.8206 24.6481 59.6086C24.6481 61.7286 26.339 63.4533 28.4174 63.4533C30.4958 63.4533 32.1865 61.7286 32.1865 59.6086C32.1865 57.8206 30.9839 56.3139 29.3604 55.8858V50.8657C35.814 50.5604 41.4521 47.1391 44.757 42.0985L49.1717 44.6108C48.9952 45.2534 49.0019 45.9375 49.1996 46.6039C50.156 49.8265 54.6265 50.4361 56.2933 47.5901C57.3506 45.7852 56.6376 43.496 54.7998 42.4503C53.2288 41.5563 51.3036 41.8295 50.1156 43.0013L45.7027 40.4901C47.0795 37.8624 47.858 34.8826 47.858 31.7268C47.858 28.571 47.0796 25.5912 45.7027 22.9635L50.1147 20.4528C51.2841 21.6113 53.2049 21.9106 54.7996 21.003ZM51.9735 16.1782C52.9624 15.6156 54.1542 15.9296 54.6598 16.7928C55.1703 17.6644 54.8374 18.8351 53.8566 19.3931C52.8749 19.9521 51.6799 19.6487 51.1703 18.7786C50.6598 17.907 50.9928 16.7363 51.9735 16.1782ZM5.66405 18.7786C5.15394 19.6494 3.95921 19.9516 2.97772 19.3931C1.99698 18.8351 1.66403 17.6643 2.17452 16.7928C2.69343 15.9068 3.8981 15.6306 4.86085 16.1782C5.84171 16.7363 6.17454 17.907 5.66405 18.7786ZM5.82474 46.0818C5.51757 47.1171 4.394 47.7566 3.33066 47.501C2.30051 47.2535 1.71621 46.2569 2.01396 45.2533C2.27649 44.3685 3.13061 43.7786 4.03188 43.7786C5.30747 43.7786 6.17428 44.9038 5.82474 46.0818ZM51.1703 44.6746C51.6892 43.7887 52.8939 43.5124 53.8566 44.0601C54.8371 44.618 55.1704 45.7887 54.6598 46.6605C53.8266 48.0829 51.5034 47.7454 51.0097 46.0819C50.8658 45.5968 50.9228 45.0971 51.1703 44.6746ZM26.5341 3.84472C26.5341 2.74979 27.3789 1.85897 28.4174 1.85897C29.4557 1.85897 30.3005 2.74979 30.3005 3.84472C30.3005 4.93965 29.4557 5.83047 28.4174 5.83047C27.3788 5.83047 26.5341 4.93965 26.5341 3.84472ZM30.3004 59.6085C30.3004 60.7034 29.4556 61.5942 28.4172 61.5942C27.3788 61.5942 26.534 60.7034 26.534 59.6085C26.534 58.5135 27.3788 57.6227 28.4172 57.6227C29.4556 57.6227 30.3004 58.5135 30.3004 59.6085ZM45.9719 31.7265C45.9719 41.2674 38.0968 49.0293 28.4172 49.0293C18.7376 49.0293 10.8626 41.2674 10.8626 31.7265C10.8626 22.1857 18.7376 14.4237 28.4172 14.4237C38.0968 14.4237 45.9719 22.1858 45.9719 31.7265Z" fill="#A23737"/>
<path d="M30.6161 41.2732H33.8288C35.1916 41.2732 36.3002 40.1805 36.3002 38.8372V30.9715C36.3002 29.6602 35.2428 28.5906 33.9246 28.5404V26.8098C33.9246 23.8158 31.4534 21.3799 28.4157 21.3799C25.3781 21.3799 22.9068 23.8158 22.9068 26.8098V28.5404C21.5887 28.5906 20.5312 29.6602 20.5312 30.9715V38.8372C20.5312 40.1804 21.6399 41.2732 23.0026 41.2732H26.2154C26.7363 41.2732 27.1584 40.8571 27.1584 40.3437C27.1584 39.8304 26.7363 39.4142 26.2154 39.4142H23.0026C22.6853 39.4142 22.4173 39.15 22.4173 38.8372V30.9715C22.4173 30.6589 22.6853 30.3945 23.0026 30.3945H33.8288C34.1461 30.3945 34.4142 30.6587 34.4142 30.9715V38.8372C34.4142 39.15 34.1461 39.4142 33.8288 39.4142H30.6161C30.0952 39.4142 29.6731 39.8304 29.6731 40.3437C29.6731 40.8571 30.0953 41.2732 30.6161 41.2732ZM32.0387 28.5356H24.7928V26.8097C24.7928 24.8407 26.418 23.2387 28.4157 23.2387C30.4134 23.2387 32.0385 24.8407 32.0385 26.8097V28.5356H32.0387Z" fill="#A23737"/>
<path d="M28.4165 16.4692C19.8814 16.4692 12.9375 23.3135 12.9375 31.7262C12.9375 40.1389 19.8815 46.9831 28.4165 46.9831C32.1414 46.9831 35.7409 45.6601 38.5517 43.258C41.3339 40.8802 43.1692 37.6047 43.7191 34.0345C43.7973 33.527 43.4433 33.0531 42.9284 32.976C42.4131 32.8989 41.9327 33.2479 41.8545 33.7554C40.8561 40.2367 35.079 45.1241 28.4165 45.1241C20.9213 45.1241 14.8235 39.1138 14.8235 31.7262C14.8235 24.3385 20.9213 18.3282 28.4165 18.3282C35.079 18.3282 40.8561 23.2157 41.8545 29.6969C41.9326 30.2045 42.413 30.5535 42.9284 30.4763C43.4433 30.3992 43.7973 29.9253 43.7191 29.4178C42.5743 21.9858 36.0613 16.4692 28.4165 16.4692Z" fill="#A23737"/>
</svg>
