<svg width="66" height="66" viewBox="0 0 66 66" fill="none" xmlns="http://www.w3.org/2000/svg">
    <path d="M38.5498 59.3994H27.4464C22.1202 59.3994 13.1992 59.3994 13.1992 50.2056V29.9414C13.1992 28.232 14.4642 26.3994 16.3474 26.3994H25.627C27.5652 26.3994 28.5992 28.7446 28.5992 30.4386V31.1074C28.5992 32.0094 29.6156 32.9994 30.5418 32.9994H35.4566C36.3828 32.9994 37.3992 32.0094 37.3992 31.1074V30.4386C37.3992 28.7446 38.4332 26.3994 40.3736 26.3994H49.6532C51.3868 26.3994 52.7992 27.8932 52.7992 29.7302V50.2056C52.7992 59.3994 43.8782 59.3994 38.5498 59.3994ZM16.3474 28.5994C15.8788 28.5994 15.3992 29.277 15.3992 29.9414V50.2056C15.3992 56.117 19.4582 57.1994 27.4486 57.1994H38.552C46.5402 57.1994 50.5992 56.117 50.5992 50.2056V29.7302C50.5992 29.1868 50.2362 28.5994 49.651 28.5994H40.3714C40.1294 28.5994 39.5992 29.5212 39.5992 30.4386V31.1074C39.5992 33.2502 37.6258 35.1994 35.4566 35.1994H30.5418C28.4122 35.1994 26.3992 33.2106 26.3992 31.1074V30.4386C26.3992 29.5212 25.869 28.5994 25.6248 28.5994H16.3474Z" fill="#A23737"/>
    <path d="M47.2996 28.5996H40.6996C40.0924 28.5996 39.5996 28.1068 39.5996 27.4996V15.6086C39.5996 15.536 39.4632 15.3996 39.3378 15.3996H26.6614C26.6174 15.4458 26.3996 15.7824 26.3996 15.965V27.4996C26.3996 28.1068 25.9068 28.5996 25.2996 28.5996H18.6996C18.0924 28.5996 17.5996 28.1068 17.5996 27.4996V16.6734C17.5996 10.8368 21.41 6.59961 26.6614 6.59961H39.3378C44.5892 6.59961 48.3996 10.8368 48.3996 16.6734V27.4996C48.3996 28.1068 47.9068 28.5996 47.2996 28.5996ZM41.7996 26.3996H46.1996V16.6734C46.1996 12.038 43.3792 8.79961 39.3378 8.79961H26.6614C22.62 8.79961 19.7996 12.038 19.7996 16.6734V26.3996H24.1996V15.965C24.1996 14.6868 25.2754 13.1996 26.6614 13.1996H39.3378C40.671 13.1996 41.7996 14.3018 41.7996 15.6086V26.3996Z" fill="#A23737"/>
    <path d="M32.6063 49.9746C32.3247 49.9746 32.0431 49.8668 31.8275 49.6534L27.5639 45.3898C27.1349 44.9608 27.1349 44.2634 27.5639 43.8344C27.9929 43.4054 28.6903 43.4054 29.1193 43.8344L32.6041 47.3192L42.9661 36.9594C43.3951 36.5304 44.0925 36.5304 44.5215 36.9594C44.9505 37.3884 44.9505 38.0858 44.5215 38.5148L33.3851 49.6512C33.1695 49.8668 32.8879 49.9746 32.6063 49.9746Z" fill="#A23737"/>
</svg>
