<svg width="106" height="106" viewBox="0 0 106 106" fill="none" xmlns="http://www.w3.org/2000/svg">
<path d="M70.2253 81.2665C64.0419 75.0832 56.0919 71.5499 47.2586 71.5499C38.4253 71.5499 30.0336 75.0832 23.8503 81.2665L20.7586 78.1749C27.8253 71.1082 37.1003 67.1332 46.8169 67.1332C56.5336 67.1332 65.8086 71.1082 72.8753 78.1749L70.2253 81.2665Z" fill="#00A398"/>
<path d="M99.8166 81.2663C90.9833 72.433 78.175 69.783 66.6916 73.3163C68.9 74.6413 71.1083 76.408 72.875 78.1747L69.7833 81.2663C67.1333 78.6163 64.0416 76.408 60.95 75.083C60.0666 74.6413 59.625 73.758 59.625 72.8747C59.625 71.9913 60.0666 71.108 60.95 70.6663C75.0833 64.0413 91.8666 66.6913 102.908 77.733L99.8166 81.2663Z" fill="#00A398"/>
<path d="M15.9002 46.8171C15.4585 46.8171 15.4585 46.8171 15.9002 46.8171C14.5752 46.8171 14.1335 45.9338 13.6919 45.0504L11.0419 35.3338C10.6002 34.4504 11.0419 33.5671 11.9252 33.1254L38.4252 14.5754C38.4252 14.5754 38.8669 14.1338 39.3085 14.1338L50.3502 11.4838C50.7919 11.4838 50.7919 11.4838 51.2335 11.4838L83.4752 15.0171C84.3585 15.0171 85.2419 15.9004 85.2419 16.7838L87.8919 26.5004C88.3335 27.3838 87.8919 28.2671 87.0085 28.7088C86.1252 29.1504 85.2419 29.1504 84.3585 28.7088C83.0335 27.8254 80.8252 27.3838 79.0585 27.8254C76.8502 28.2671 75.0835 30.0338 74.6419 32.2421C74.6419 33.1254 73.7585 33.5671 72.8752 34.0088C71.9919 34.4504 71.1085 34.0088 70.6669 33.1254C69.3419 31.3588 66.6919 30.4754 64.4835 31.3588C62.2752 31.8004 60.5085 33.5671 60.0669 35.7754C60.0669 36.6588 59.1835 37.1004 58.3002 37.5421C57.4169 37.5421 56.5335 37.5421 56.0919 36.6588C54.7669 34.8921 52.1169 34.0088 49.9085 34.8921C47.7002 35.3338 45.9335 37.1004 45.4919 39.3088C45.4919 40.1921 44.6085 40.6338 43.7252 41.0754C42.8419 41.0754 41.9585 41.0754 41.5169 40.1921C40.6335 38.8671 38.4252 37.9838 36.2169 38.4254C34.0085 38.8671 32.2419 40.6338 31.8002 42.8421C31.8002 43.7254 30.9169 44.1671 30.0335 44.6088C29.1502 44.6088 28.2669 44.6088 27.8252 43.7254C26.5002 42.4004 23.8502 41.5171 21.6419 41.9588C19.8752 42.4004 18.5502 43.7254 17.6669 45.4921C17.2252 46.3754 16.7835 46.8171 15.9002 46.8171ZM15.9002 35.7754L16.7835 39.7504C18.1085 38.8671 18.9919 38.4254 20.7585 37.9838C23.4085 37.1004 26.5002 37.5421 28.7085 39.3088C30.0335 37.1004 32.2419 35.3338 35.3335 34.4504C37.9835 33.5671 40.6335 34.0088 42.8419 35.3338C44.1669 33.1254 46.3752 31.3588 49.4669 30.4754C52.1169 29.5921 55.2085 30.0338 57.4169 31.8004C58.7419 29.5921 60.9502 27.8254 64.0419 26.9421C66.6919 26.0588 69.7835 26.5004 71.9919 28.2671C73.3169 26.0588 75.5252 24.2921 78.6169 23.4088C79.9419 22.9671 81.2669 22.9671 83.0335 23.4088L82.1502 19.4338L51.6752 15.9004L41.0752 18.1088L15.9002 35.7754Z" fill="#00A398"/>
<path d="M58.7419 68.9003C57.8586 68.9003 56.9752 68.017 56.5336 67.1336L49.9086 41.0753C49.4669 39.7503 50.3502 38.867 51.6752 38.4253C53.0002 37.9836 53.8836 38.867 54.3252 40.192L60.9502 66.2503C61.3919 67.5753 60.5086 68.4586 59.1836 68.9003H58.7419Z" fill="#00A398"/>
<path d="M43.7253 10.6001C42.8419 10.6001 41.9586 9.71679 41.5169 8.83345L41.0753 6.62512C41.0753 5.74179 41.5169 4.41679 42.8419 3.97512C44.1669 3.53345 45.0503 4.41679 45.4919 5.74179L45.9336 7.95012C46.3752 9.27512 45.4919 10.1585 44.1669 10.6001C44.1669 10.6001 44.1669 10.6001 43.7253 10.6001Z" fill="#00A398"/>
<path d="M11.4835 90.1C8.39182 90.1 5.30015 88.775 3.09182 86.5667C2.20849 85.6833 2.20849 84.3583 3.09182 83.475C3.97515 82.5917 5.30015 82.5917 6.18349 83.475C9.27515 86.5667 14.1335 86.5667 16.7835 83.475C17.6668 82.5917 18.9918 82.5917 19.8752 83.475C20.7585 84.3583 20.7585 85.6833 19.8752 86.5667C17.6668 88.775 14.5752 90.1 11.4835 90.1Z" fill="#00A398"/>
<path d="M25.175 90.1C22.0833 90.1 18.9917 88.775 16.7833 86.5667C15.9 85.6833 15.9 84.3583 16.7833 83.475C17.6667 82.5917 18.9917 82.5917 19.875 83.475C22.9667 86.5667 27.825 86.5667 30.475 83.475C31.3584 82.5917 32.6834 82.5917 33.5667 83.475C34.45 84.3583 34.45 85.6833 33.5667 86.5667C31.3584 88.775 28.2667 90.1 25.175 90.1Z" fill="#00A398"/>
<path d="M38.8667 90.1C35.775 90.1 32.6833 88.775 30.475 86.5667C29.5917 85.6833 29.5917 84.3583 30.475 83.475C31.3583 82.5917 32.6833 82.5917 33.5667 83.475C34.8917 84.8 37.1 85.6833 38.8667 85.6833C41.075 85.6833 42.8417 84.8 44.1667 83.475C45.05 82.5917 46.375 82.5917 47.2583 83.475C48.1417 84.3583 48.1417 85.6833 47.2583 86.5667C45.05 88.775 41.9583 90.1 38.8667 90.1Z" fill="#00A398"/>
<path d="M11.4835 102.025C8.39182 102.025 5.30015 100.7 3.09182 98.4915C2.20849 97.6081 2.20849 96.2831 3.09182 95.3998C3.97515 94.5165 5.30015 94.5165 6.18349 95.3998C8.83349 98.0498 14.1335 98.0498 16.7835 95.3998C17.6668 94.5165 18.9918 94.5165 19.8752 95.3998C20.7585 96.2831 20.7585 97.6081 19.8752 98.4915C17.6668 100.7 14.5752 102.025 11.4835 102.025Z" fill="#00A398"/>
<path d="M25.175 102.025C22.0833 102.025 18.9917 100.7 16.7833 98.4915C15.9 97.6081 15.9 96.2831 16.7833 95.3998C17.6667 94.5165 18.9917 94.5165 19.875 95.3998C22.9667 98.4915 27.825 98.4915 30.475 95.3998C31.3584 94.5165 32.6834 94.5165 33.5667 95.3998C34.45 96.2831 34.45 97.6081 33.5667 98.4915C31.3584 100.7 28.2667 102.025 25.175 102.025Z" fill="#00A398"/>
<path d="M38.8667 102.025C35.775 102.025 32.6833 100.7 30.475 98.4915C29.5917 97.6081 29.5917 96.2831 30.475 95.3998C31.3583 94.5165 32.6833 94.5165 33.5667 95.3998C36.2167 98.0498 41.5167 98.0498 44.1667 95.3998C45.05 94.5165 46.375 94.5165 47.2583 95.3998C48.1417 96.2831 48.1417 97.6081 47.2583 98.4915C45.05 100.7 41.9583 102.025 38.8667 102.025Z" fill="#00A398"/>
</svg>
