<svg xmlns="http://www.w3.org/2000/svg" xmlns:xlink="http://www.w3.org/1999/xlink" width="48" zoomAndPan="magnify" viewBox="0 0 36 36.000001" height="48" preserveAspectRatio="xMidYMid meet" version="1.0"><defs><clipPath id="07489d14e9"><path d="M 0.488281 0 L 35.511719 0 L 35.511719 35.027344 L 0.488281 35.027344 Z M 0.488281 0 " clip-rule="nonzero"/></clipPath><clipPath id="63e38e35b8"><path d="M 1.035156 0.546875 L 34.964844 0.546875 L 34.964844 34.480469 L 1.035156 34.480469 Z M 1.035156 0.546875 " clip-rule="nonzero"/></clipPath><clipPath id="56fd625ebd"><path d="M 18 0.546875 C 8.628906 0.546875 1.035156 8.144531 1.035156 17.511719 C 1.035156 26.882812 8.628906 34.480469 18 34.480469 C 27.371094 34.480469 34.964844 26.882812 34.964844 17.511719 C 34.964844 8.144531 27.371094 0.546875 18 0.546875 Z M 18 0.546875 " clip-rule="nonzero"/></clipPath><clipPath id="603c43d58b"><path d="M 7.308594 6.578125 L 28.472656 6.578125 L 28.472656 28.46875 L 7.308594 28.46875 Z M 7.308594 6.578125 " clip-rule="nonzero"/></clipPath></defs><g clip-path="url(#07489d14e9)"><path fill="#ffffff" d="M 0.488281 0 L 35.511719 0 L 35.511719 35.027344 L 0.488281 35.027344 Z M 0.488281 0 " fill-opacity="1" fill-rule="nonzero"/><path fill="#ffffff" d="M 0.488281 0 L 35.511719 0 L 35.511719 35.027344 L 0.488281 35.027344 Z M 0.488281 0 " fill-opacity="1" fill-rule="nonzero"/></g><g clip-path="url(#63e38e35b8)"><g clip-path="url(#56fd625ebd)"><path fill="#000000" d="M 1.035156 0.546875 L 34.964844 0.546875 L 34.964844 34.480469 L 1.035156 34.480469 Z M 1.035156 0.546875 " fill-opacity="1" fill-rule="nonzero"/></g></g><g clip-path="url(#603c43d58b)"><path fill="#ffffff" d="M 19.902344 15.84375 L 27.78125 6.582031 L 25.914062 6.582031 L 19.074219 14.621094 L 13.609375 6.582031 L 7.308594 6.582031 L 15.570312 18.742188 L 7.308594 28.453125 L 9.175781 28.453125 L 16.398438 19.960938 L 22.167969 28.453125 L 28.472656 28.453125 Z M 17.347656 18.847656 L 16.507812 17.636719 L 9.847656 8.003906 L 12.714844 8.003906 L 18.089844 15.777344 L 18.929688 16.988281 L 25.914062 27.097656 L 23.046875 27.097656 Z M 17.347656 18.847656 " fill-opacity="1" fill-rule="nonzero"/></g></svg>