<svg xmlns="http://www.w3.org/2000/svg" xmlns:xlink="http://www.w3.org/1999/xlink" width="48" zoomAndPan="magnify" viewBox="0 0 36 36.000001" height="48" preserveAspectRatio="xMidYMid meet" version="1.0"><defs><clipPath id="557a6627ee"><path d="M 0.488281 0 L 35.511719 0 L 35.511719 35.027344 L 0.488281 35.027344 Z M 0.488281 0 " clip-rule="nonzero"/></clipPath><clipPath id="9844eaf3bb"><path d="M 1.035156 0.546875 L 34.964844 0.546875 L 34.964844 34.480469 L 1.035156 34.480469 Z M 1.035156 0.546875 " clip-rule="nonzero"/></clipPath><clipPath id="0de1357e1d"><path d="M 18 0.546875 C 8.628906 0.546875 1.035156 8.144531 1.035156 17.511719 C 1.035156 26.882812 8.628906 34.480469 18 34.480469 C 27.371094 34.480469 34.964844 26.882812 34.964844 17.511719 C 34.964844 8.144531 27.371094 0.546875 18 0.546875 Z M 18 0.546875 " clip-rule="nonzero"/></clipPath><clipPath id="76b9d31ebe"><path d="M 7.078125 6.339844 L 28.96875 6.339844 L 28.96875 28.960938 L 7.078125 28.960938 Z M 7.078125 6.339844 " clip-rule="nonzero"/></clipPath></defs><g clip-path="url(#557a6627ee)"><path fill="#ffffff" d="M 0.488281 0 L 35.511719 0 L 35.511719 35.027344 L 0.488281 35.027344 Z M 0.488281 0 " fill-opacity="1" fill-rule="nonzero"/><path fill="#ffffff" d="M 0.488281 0 L 35.511719 0 L 35.511719 35.027344 L 0.488281 35.027344 Z M 0.488281 0 " fill-opacity="1" fill-rule="nonzero"/></g><g clip-path="url(#9844eaf3bb)"><g clip-path="url(#0de1357e1d)"><path stroke-linecap="butt" transform="matrix(0.72973, 0, 0, 0.72973, 1.033783, 0.547299)" fill="none" stroke-linejoin="miter" d="M 23.250001 -0.00058136 C 10.408132 -0.00058136 0.00188146 10.411022 0.00188146 23.247538 C 0.00188146 36.089408 10.408132 46.501011 23.250001 46.501011 C 36.09187 46.501011 46.498121 36.089408 46.498121 23.247538 C 46.498121 10.411022 36.09187 -0.00058136 23.250001 -0.00058136 Z M 23.250001 -0.00058136 " stroke="#000000" stroke-width="1" stroke-opacity="1" stroke-miterlimit="4"/></g></g><g clip-path="url(#76b9d31ebe)"><path fill="#000000" d="M 20.105469 15.914062 L 28.253906 6.34375 L 26.324219 6.34375 L 19.246094 14.652344 L 13.59375 6.34375 L 7.078125 6.34375 L 15.625 18.910156 L 7.078125 28.945312 L 9.007812 28.945312 L 16.480469 20.167969 L 22.449219 28.945312 L 28.96875 28.945312 Z M 17.460938 19.019531 L 16.59375 17.769531 L 9.703125 7.8125 L 12.671875 7.8125 L 18.230469 15.847656 L 19.097656 17.097656 L 26.324219 27.542969 L 23.359375 27.542969 Z M 17.460938 19.019531 " fill-opacity="1" fill-rule="nonzero"/></g></svg>