<?xml version="1.0" encoding="UTF-8" standalone="no"?> <svg width="48" height="48" viewBox="0 0 48 48" fill="none" xmlns="http://www.w3.org/2000/svg">
<path fill-rule="evenodd" clip-rule="evenodd" d="M24 0C10.7452 0 0 10.7452 0 24C0 37.2548 10.7452 48 24 48C37.2548 48 48 37.2548 48 24C48 10.7452 37.2548 0 24 0ZM33.4021 13.6052C36.3612 13.6919 37.757 15.6108 37.586 19.362C37.4578 22.1653 35.5 26.0032 31.7123 30.8756C27.7967 35.9632 24.4836 38.5082 21.7746 38.5082C20.0951 38.5082 18.6746 36.9595 17.5139 33.86C17.213 32.7567 16.9123 31.6535 16.6115 30.5503C16.1377 28.8124 15.664 27.0746 15.1898 25.3367C14.3276 22.2387 13.4037 20.6881 12.4147 20.6881C12.1992 20.6881 11.4453 21.1415 10.1543 22.0441L8.8 20.2992C10.2214 19.0508 11.6233 17.8021 13.0025 16.5517C14.8982 14.9144 16.3223 14.0526 17.2708 13.9659C19.5112 13.7503 20.8908 15.282 21.4086 18.561C21.9682 22.0993 22.3557 24.2995 22.5729 25.1607C23.2199 28.0962 23.9309 29.5624 24.7071 29.5624C25.3092 29.5624 26.2152 28.6106 27.4228 26.7056C28.628 24.802 29.2743 23.3533 29.3613 22.3576C29.5337 20.7147 28.8874 19.8911 27.4228 19.8911C26.7333 19.8911 26.0222 20.0498 25.2909 20.3633C26.7067 15.7281 29.4108 13.4767 33.4021 13.6052Z" fill="black"/>
</svg>
