<svg width="59" height="59" viewBox="0 0 59 59" fill="none" xmlns="http://www.w3.org/2000/svg">
    <path d="M51.87 55.0668H6.88255C4.67005 55.0668 2.94922 53.1001 2.94922 51.1335V9.58763C2.94922 7.37513 4.67005 5.6543 6.88255 5.6543H51.6242C53.8367 5.6543 55.5575 7.37513 55.5575 9.58763V51.1335C55.8034 53.346 54.0826 55.0668 51.87 55.0668ZM6.88255 7.8668C5.89922 7.8668 5.16172 8.6043 5.16172 9.58763V51.1335C5.16172 52.1168 5.89922 52.8543 6.88255 52.8543H51.6242C52.6075 52.8543 53.3451 52.1168 53.3451 51.1335V9.58763C53.3451 8.6043 52.6075 7.8668 51.6242 7.8668H6.88255Z" fill="#A23737"/>
    <path d="M54.5742 16.7171H3.93255C3.44089 16.7171 2.94922 16.2255 2.94922 15.488C2.94922 14.7505 3.44089 14.2588 3.93255 14.2588H54.5742C55.0659 14.2588 55.5575 14.7505 55.5575 15.488C55.8034 16.2255 55.3117 16.7171 54.5742 16.7171Z" fill="#A23737"/>
    <path d="M8.60417 9.83398C7.86667 9.83398 7.375 10.3257 7.375 11.0632C7.375 11.8007 7.86667 12.2923 8.60417 12.2923C9.34167 12.2923 9.83333 11.8007 9.83333 11.0632C10.0792 10.3257 9.34167 9.83398 8.60417 9.83398Z" fill="#A23737"/>
    <path d="M13.028 9.83398C12.2905 9.83398 11.7988 10.3257 11.7988 11.0632C11.7988 11.8007 12.2905 12.2923 13.028 12.2923C13.7655 12.2923 14.2572 11.8007 14.2572 11.0632C14.503 10.3257 13.7655 9.83398 13.028 9.83398Z" fill="#A23737"/>
    <path d="M17.4538 9.83398C16.7163 9.83398 16.2246 10.3257 16.2246 11.0632C16.2246 11.8007 16.7163 12.2923 17.4538 12.2923C18.1913 12.2923 18.6829 11.8007 18.6829 11.0632C18.6829 10.3257 18.1913 9.83398 17.4538 9.83398Z" fill="#A23737"/>
    <path d="M22.3717 55.0674C21.6342 55.0674 21.1426 54.5757 21.1426 53.8382V15.734C21.1426 14.9965 21.6342 14.5049 22.3717 14.5049C22.8634 14.5049 23.6009 14.9965 23.6009 15.734V54.0841C23.6009 54.5757 23.1092 55.0674 22.3717 55.0674Z" fill="#A23737"/>
    <path d="M47.4443 35.1544H29.2526C28.5151 35.1544 28.0234 34.6627 28.0234 33.9252V22.6169C28.0234 21.8794 28.5151 21.3877 29.2526 21.3877H47.4443C48.1818 21.3877 48.6734 21.8794 48.6734 22.6169V33.9252C48.4276 34.6627 47.9359 35.1544 47.4443 35.1544ZM30.4818 32.9419H46.2151V23.846H30.4818V32.9419Z" fill="#A23737"/>
    <path d="M36.3818 46.954H29.2526C28.5151 46.954 28.0234 46.4624 28.0234 45.7249V39.8249C28.0234 39.0874 28.5151 38.5957 29.2526 38.5957H36.3818C37.1193 38.5957 37.6109 39.0874 37.6109 39.8249V45.7249C37.6109 46.4624 37.1193 46.954 36.3818 46.954ZM30.4818 44.7415H35.3984V41.054H30.4818V44.7415Z" fill="#A23737"/>
    <path d="M47.4443 46.954H40.3151C39.8234 46.954 39.0859 46.4624 39.0859 45.7249V39.8249C39.0859 39.0874 39.5776 38.5957 40.3151 38.5957H47.4443C48.1818 38.5957 48.6734 39.0874 48.6734 39.8249V45.7249C48.4276 46.4624 47.9359 46.954 47.4443 46.954ZM41.2984 44.7415H46.2151V41.054H41.2984V44.7415Z" fill="#A23737"/>
    <path d="M17.2048 48.6751H10.5673C10.0757 48.6751 9.58398 48.1835 9.58398 47.446C9.58398 46.9543 10.0757 46.2168 10.5673 46.2168H17.2048C17.9423 46.2168 18.434 46.7085 18.434 47.446C18.434 48.1835 17.9423 48.6751 17.2048 48.6751Z" fill="#A23737"/>
    <path d="M17.2048 43.513H10.5673C10.0757 43.513 9.58398 43.0214 9.58398 42.2839C9.58398 41.7922 10.0757 41.0547 10.5673 41.0547H17.2048C17.9423 41.0547 18.434 41.5464 18.434 42.2839C18.434 43.0214 17.9423 43.513 17.2048 43.513Z" fill="#A23737"/>
    <path d="M17.2048 38.3499H10.5673C10.0757 38.3499 9.58398 37.8583 9.58398 37.1208C9.58398 36.6291 10.0757 35.8916 10.5673 35.8916H17.2048C17.9423 35.8916 18.434 36.3833 18.434 37.1208C18.434 38.1041 17.9423 38.3499 17.2048 38.3499Z" fill="#A23737"/>
    <path d="M17.2048 33.4329H10.5673C10.0757 33.4329 9.58398 32.9413 9.58398 32.2038C9.58398 31.7121 10.0757 30.9746 10.5673 30.9746H17.2048C17.9423 30.9746 18.434 31.4663 18.434 32.2038C18.434 32.9413 17.9423 33.4329 17.2048 33.4329Z" fill="#A23737"/>
    <path d="M17.2048 28.2711H10.5673C10.0757 28.2711 9.58398 27.7794 9.58398 27.0419C9.58398 26.5503 10.0757 26.0586 10.5673 26.0586H17.2048C17.9423 26.0586 18.434 26.5503 18.434 27.0419C18.434 27.7794 17.9423 28.2711 17.2048 28.2711Z" fill="#A23737"/>
    <path d="M17.2065 23.1083H10.569C9.83151 23.1083 9.33984 22.6166 9.33984 22.1249C9.33984 21.6333 9.83151 21.1416 10.3232 21.1416H17.2065C17.944 21.1416 18.4357 21.6333 18.4357 22.1249C18.4357 22.6166 17.944 23.1083 17.2065 23.1083Z" fill="#A23737"/>
</svg>
