<svg width="57" height="51" viewBox="0 0 57 51" fill="none" xmlns="http://www.w3.org/2000/svg">
<path d="M56.05 9.44444C56.5746 9.44444 57 9.02157 57 8.5V4.72222C57 2.11439 54.8732 0 52.25 0H4.75C2.12683 0 0 2.11439 0 4.72222V34.9444C0 37.5523 2.12683 39.6667 4.75 39.6667H20.1402L16.5777 45.3333H13.3C10.6768 45.3333 8.55 47.4477 8.55 50.0556C8.55 50.5771 8.97537 51 9.5 51H47.5C48.0246 51 48.45 50.5771 48.45 50.0556C48.45 47.4477 46.3232 45.3333 43.7 45.3333H40.4223L36.8598 39.6667H52.25C54.8732 39.6667 57 37.5523 57 34.9444V15.1111C57 14.5895 56.5746 14.1667 56.05 14.1667C55.5254 14.1667 55.1 14.5895 55.1 15.1111V30.2222H11.4C10.8754 30.2222 10.45 30.6451 10.45 31.1667C10.45 31.6882 10.8754 32.1111 11.4 32.1111H55.1V34.9444C55.1 36.5091 53.8239 37.7778 52.25 37.7778H4.75C3.1761 37.7778 1.9 36.5091 1.9 34.9444V32.1111H6.33643C6.86106 32.1111 7.28643 31.6882 7.28643 31.1667C7.28643 30.6451 6.86106 30.2222 6.33643 30.2222H1.9V4.72222C1.9 3.15752 3.1761 1.88889 4.75 1.88889H52.25C53.8239 1.88889 55.1 3.15752 55.1 4.72222V8.5C55.1 9.02157 55.5254 9.44444 56.05 9.44444ZM46.3886 49.1111H10.6114C11.0141 47.9785 12.0916 47.2218 13.3 47.2222H43.7C44.9084 47.2218 45.9859 47.9785 46.3886 49.1111ZM34.6277 39.6667L38.1902 45.3333H18.8098L22.3723 39.6667H34.6277Z" fill="#A23737"/>
<path d="M49.4 34.944C49.4 35.4655 48.9746 35.8884 48.45 35.8884C47.9254 35.8884 47.5 35.4655 47.5 34.944C47.5 34.4224 47.9254 33.9995 48.45 33.9995C48.9746 33.9995 49.4 34.4224 49.4 34.944Z" fill="#A23737"/>
<path d="M45.5992 34.944C45.5992 35.4655 45.1739 35.8884 44.6492 35.8884C44.1246 35.8884 43.6992 35.4655 43.6992 34.944C43.6992 34.4224 44.1246 33.9995 44.6492 33.9995C45.1739 33.9995 45.5992 34.4224 45.5992 34.944Z" fill="#A23737"/>
<path d="M18.0499 25.4995C18.5745 25.4995 18.9999 25.0766 18.9999 24.5551V22.9682C19.3316 22.8197 19.6493 22.6427 19.9499 22.4393L21.3369 23.2329C21.791 23.4893 22.368 23.333 22.6287 22.8834L24.5287 19.6156C24.6568 19.3989 24.692 19.1407 24.628 18.8981C24.564 18.6555 24.4054 18.448 24.1869 18.3216L22.7999 17.5285C22.7999 17.3491 22.7999 17.1789 22.7999 16.9995C22.7999 16.8201 22.7999 16.65 22.7999 16.4706L24.1776 15.6774C24.3956 15.551 24.5543 15.3435 24.6187 15.1009C24.6827 14.8584 24.647 14.6001 24.5195 14.3834L22.6195 11.1156C22.3583 10.666 21.7817 10.5097 21.3276 10.7661L19.9499 11.5597C19.6493 11.3564 19.3316 11.1793 18.9999 11.0308V9.44396C18.9999 8.92239 18.5745 8.49951 18.0499 8.49951H14.2499C13.7253 8.49951 13.2999 8.92239 13.2999 9.44396V11.0308C12.9682 11.1793 12.6505 11.3564 12.3499 11.5597L10.9629 10.7661C10.5088 10.5097 9.93177 10.666 9.67107 11.1156L7.77107 14.3834C7.64305 14.6001 7.60779 14.8584 7.67181 15.1009C7.73582 15.3435 7.89446 15.551 8.11294 15.6774L9.49063 16.4706V16.9995V17.5285L8.11294 18.3216C7.89446 18.448 7.73582 18.6555 7.67181 18.8981C7.60779 19.1407 7.64305 19.3989 7.77107 19.6156L9.67107 22.8834C9.93177 23.333 10.5088 23.4893 10.9629 23.2329L12.3499 22.4393C12.6505 22.6427 12.9682 22.8197 13.2999 22.9682V24.5551C13.2999 25.0766 13.7253 25.4995 14.2499 25.4995C14.7745 25.4995 15.1999 25.0766 15.1999 24.5551V22.3355C15.1985 21.9357 14.9434 21.5797 14.5635 21.4478C14.0152 21.2537 13.5068 20.9622 13.0624 20.5882C12.7572 20.3272 12.3193 20.2852 11.97 20.4845L10.8679 21.1268L9.91785 19.4833L11.02 18.8884C11.3716 18.6901 11.5581 18.2921 11.4853 17.8969C11.3716 17.3292 11.3716 16.7454 11.4853 16.1777C11.5952 15.7581 11.4032 15.3177 11.02 15.1106L9.91785 14.4779L10.8679 12.8344L11.97 13.4768C12.3193 13.676 12.7572 13.6345 13.0624 13.373C13.5068 12.999 14.0152 12.7075 14.5635 12.5134C14.9434 12.3815 15.1985 12.0255 15.1999 11.6257V10.3884H17.0999V11.6635C17.1013 12.0633 17.3564 12.4193 17.7363 12.5512C18.2846 12.7454 18.793 13.0368 19.2374 13.4108C19.5426 13.6718 19.9805 13.7138 20.3298 13.5146L21.432 12.8722L22.382 14.5157L21.2798 15.1106C20.9282 15.3089 20.7417 15.7069 20.8146 16.1021C20.9282 16.6698 20.9282 17.2536 20.8146 17.8213C20.7046 18.2409 20.8967 18.6813 21.2798 18.8884L22.382 19.5211L21.432 21.1647L20.3298 20.5223C19.9805 20.3231 19.5426 20.3646 19.2374 20.626C18.793 21 18.2846 21.2915 17.7363 21.4856C17.3564 21.6175 17.1013 21.9735 17.0999 22.3733V24.5551C17.0999 25.0766 17.5253 25.4995 18.0499 25.4995Z" fill="#A23737"/>
<path d="M19.0008 17.0003C19.0008 15.4356 17.7247 14.167 16.1508 14.167C14.5769 14.167 13.3008 15.4356 13.3008 17.0003C13.3008 18.565 14.5769 19.8337 16.1508 19.8337C17.7247 19.8337 19.0008 18.565 19.0008 17.0003ZM16.1508 17.9448C15.6261 17.9448 15.2008 17.5219 15.2008 17.0003C15.2008 16.4788 15.6261 16.0559 16.1508 16.0559C16.6754 16.0559 17.1008 16.4788 17.1008 17.0003C17.1008 17.5219 16.6754 17.9448 16.1508 17.9448Z" fill="#A23737"/>
<path d="M37.0508 16.9999C37.0508 19.0862 38.7522 20.7777 40.8508 20.7777C42.9493 20.7777 44.6508 19.0862 44.6508 16.9999C44.6508 14.9137 42.9493 13.2222 40.8508 13.2222C38.7522 13.2222 37.0508 14.9137 37.0508 16.9999ZM42.7508 16.9999C42.7508 18.0431 41.9 18.8888 40.8508 18.8888C39.8015 18.8888 38.9508 18.0431 38.9508 16.9999C38.9508 15.9568 39.8015 15.1111 40.8508 15.1111C41.9 15.1111 42.7508 15.9568 42.7508 16.9999Z" fill="#A23737"/>
<path d="M52.145 13.7888L49.295 8.87752C49.1744 8.65663 48.9703 8.49292 48.7277 8.4219C48.4856 8.35088 48.2244 8.37901 48.0027 8.49984L45.5994 9.92573C45.2937 9.72789 44.9764 9.54804 44.6494 9.38756V6.61095C44.6494 6.08938 44.224 5.6665 43.6994 5.6665H37.9994C37.4748 5.6665 37.0494 6.08938 37.0494 6.61095V9.38756C36.7224 9.54804 36.4051 9.72789 36.0994 9.92573L33.6961 8.49984C33.2443 8.24205 32.6682 8.39377 32.4038 8.83971L29.5538 13.751C29.4039 13.9728 29.3557 14.2472 29.4211 14.5064C29.486 14.7655 29.6586 14.9855 29.8961 15.1109L32.2994 16.4709V16.9998V17.5288L29.8961 18.8887C29.4471 19.1511 29.2945 19.7243 29.5538 20.173L32.4038 25.0843C32.6682 25.5307 33.2443 25.682 33.6961 25.4242L36.0994 24.0739C36.4051 24.2718 36.7224 24.4516 37.0494 24.6121V27.3887C37.0494 27.9103 37.4748 28.3332 37.9994 28.3332H43.6994C44.224 28.3332 44.6494 27.9103 44.6494 27.3887V24.6121C44.9764 24.4516 45.2937 24.2718 45.5994 24.0739L48.0027 25.4998C48.4545 25.7576 49.0306 25.6059 49.295 25.16C49.4226 24.9432 49.4583 24.685 49.3943 24.4424C49.3298 24.1994 49.1712 23.9923 48.9527 23.866L45.9983 22.1754C45.6634 21.9789 45.2422 22.0052 44.9342 22.2413C44.4513 22.6315 43.9137 22.9496 43.3385 23.1858C42.9837 23.331 42.7513 23.6737 42.7494 24.055V26.4443H38.9494V23.9983C38.9475 23.6169 38.7151 23.2743 38.3603 23.1295C37.7851 22.8929 37.2475 22.5747 36.7646 22.1851C36.4566 21.9485 36.0354 21.9222 35.7005 22.1187L33.5723 23.337L31.6723 20.0693L33.8005 18.8887C34.1377 18.6997 34.3256 18.3261 34.2755 17.9443C34.1739 17.3379 34.1739 16.7185 34.2755 16.1121C34.3256 15.7303 34.1377 15.3567 33.8005 15.1677L31.6723 13.9396L33.5723 10.6719L35.7005 11.8902C36.0354 12.0867 36.4566 12.0609 36.7646 11.8243C37.2475 11.4342 37.7851 11.1164 38.3603 10.8799C38.7151 10.7351 38.9475 10.3924 38.9494 10.011V7.55539H42.7494V10.0014C42.7513 10.3827 42.9837 10.7254 43.3385 10.8702C43.9137 11.1067 44.4513 11.4249 44.9342 11.8146C45.2422 12.0512 45.6634 12.0775 45.9983 11.881L48.1265 10.6627L50.0265 13.9304L47.8983 15.1109C47.5611 15.3 47.3732 15.6736 47.4233 16.0554C47.5249 16.6618 47.5249 17.2811 47.4233 17.8876C47.3732 18.2694 47.5611 18.6429 47.8983 18.832L50.8527 20.5323C51.304 20.7665 51.8611 20.6061 52.1158 20.168C52.3705 19.7299 52.2327 19.1696 51.8027 18.8979L49.3994 17.5288C49.3994 17.3494 49.3994 17.17 49.3994 16.9998C49.3994 16.8297 49.3994 16.6503 49.3994 16.4709L51.8027 15.1109C52.0291 14.9846 52.1937 14.772 52.2582 14.5225C52.3227 14.2726 52.2819 14.0079 52.145 13.7888Z" fill="#A23737"/>
<path d="M21.85 7.40391C22.0245 7.40295 22.1956 7.35361 22.3441 7.2623C24.9575 5.65103 28.1424 5.23783 31.0842 6.12924C31.331 6.21087 31.601 6.18873 31.8306 6.06745C32.0607 5.9457 32.23 5.73588 32.3 5.48686C32.4471 4.98604 32.1576 4.46171 31.6539 4.31552C28.186 3.27009 24.4329 3.76214 21.356 5.66625C21.1399 5.79721 20.9854 6.00842 20.9265 6.25283C20.8676 6.49771 20.9093 6.75549 21.0425 6.96947C21.2187 7.24247 21.5235 7.40664 21.85 7.40391Z" fill="#A23737"/>
<path d="M21.3559 26.4442C23.357 27.6663 25.6574 28.3197 28.0059 28.3331C28.872 28.3303 29.7348 28.2353 30.5804 28.0499C30.9329 28.0006 31.2279 27.7599 31.3453 27.4255C31.4627 27.0917 31.3824 26.7204 31.137 26.464C30.8916 26.2072 30.5229 26.1085 30.1815 26.2081C29.4731 26.3626 28.75 26.4419 28.0249 26.4442C26.0132 26.447 24.0399 25.8945 22.3249 24.8481C21.8787 24.5788 21.2975 24.7181 21.0233 25.1599C20.7622 25.6063 20.9106 26.1786 21.3559 26.4442Z" fill="#A23737"/>
</svg>
