<svg width="619" height="506" fill="none" xmlns="http://www.w3.org/2000/svg"><g clip-path="url(#clip0_620_2009)"><path d="M496.622 410.946l-187.386 84.541-187.371-84.541V5.194h374.757v405.752z" fill="#FDD86F"/><path fill-rule="evenodd" clip-rule="evenodd" d="M307.105 500.215a5.44 5.44 0 002.131.466 5.451 5.451 0 002.146-.466l187.371-84.603a5.195 5.195 0 003.11-4.666V5.194A5.195 5.195 0 00496.669 0H121.865a5.21 5.21 0 00-5.225 5.194v405.814a5.194 5.194 0 003.11 4.666l187.355 84.541zm2.131-10.42l-182.192-82.193V10.389h364.399v397.213l-182.207 82.193z" fill="#FDD86F"/><path d="M134 403.794V17h351.708v386.794l-175.862 79.331L134 403.794z" fill="#E9C05B"/><path d="M244.291 471.225a251.775 251.775 0 00-25.35-30.373c-13.686-13.794-26.703-25.66-31.944-30.388-1.353-1.213-2.472-.731-2.41 1.073.233 6.221 2.068 20.653 14.51 35.77 9.533 11.819 24.074 19.642 34.696 24.074 1.664.7 1.555.964-.186.638a214.034 214.034 0 01-50.715-16.159 7.776 7.776 0 01-3.733-4.588 212.815 212.815 0 00-12.784-35.614c-7.916-16.734-16.345-31.493-19.828-37.48-.918-1.555-2.147-1.446-2.613.311a61.223 61.223 0 002.473 37.885c5.07 13.748 15.427 25.054 23.328 32.161 1.353 1.198 1.182 1.462-.405.591a211.497 211.497 0 01-44.618-32.83 7.68 7.68 0 01-1.991-5.552 178.884 178.884 0 00-.42-35.49 353.963 353.963 0 00-7.216-39.502c-.42-1.757-1.555-1.991-2.582-.451a60.297 60.297 0 00-8.305 34.945c.638 13.531 6.221 26.345 10.887 34.946.886 1.555.622 1.788-.591.451a222.413 222.413 0 01-31.82-45.35 7.636 7.636 0 01-.155-5.91 168.53 168.53 0 0010.544-33.545 330.808 330.808 0 004.915-39.518c.109-1.804-.98-2.395-2.349-1.229a59.472 59.472 0 00-18.382 30.529c-3.468 13.141-2.115 27.076-.28 36.64.342 1.773 0 1.882-.7.234a232.46 232.46 0 01-14.743-43.546 7.542 7.542 0 011.384-5.723 149.786 149.786 0 0017.574-27.807 295.832 295.832 0 0013.763-35.163c.544-1.726-.373-2.566-1.99-1.757a56.967 56.967 0 00-23.81 23.654c-6.237 11.275-8.32 24.463-8.912 33.67-.124 1.804-.435 1.835-.746 0a229.12 229.12 0 01-3.11-46.267 7.544 7.544 0 012.83-5.148 118.548 118.548 0 0020.42-19.362 233.395 233.395 0 0018.91-27.34c.918-1.555.218-2.566-1.555-2.1a52.629 52.629 0 00-24.634 15.552c-7.418 8.056-11.975 18.274-14.525 25.754-.591 1.727-.902 1.664-.731-.14a218.699 218.699 0 017.916-41.632 7.773 7.773 0 014.012-4.324 108.172 108.172 0 0022.893-13.188 226.858 226.858 0 0023.872-21.259c1.26-1.307.809-2.427-1.011-2.318a52.125 52.125 0 00-26.096 9.238 73 73 0 00-19.44 20.653c-.46.81-.98 1.585-1.555 2.317 0-.171.108-.326.155-.482.311-.902.622-1.788.949-2.69.326-.902.637-1.742.964-2.628l1.01-2.66 1.043-2.613c.373-.886.73-1.773 1.104-2.643.373-.871.73-1.727 1.104-2.598l1.167-2.628c.388-.855.793-1.711 1.197-2.566l1.229-2.613 1.275-2.535c.435-.855.87-1.726 1.322-2.581.45-.856.87-1.68 1.322-2.504l1.4-2.566c.466-.84.933-1.664 1.415-2.489.482-.824.964-1.695 1.462-2.535l1.555-2.457.42-.684a8.45 8.45 0 013.67-1.166 91.322 91.322 0 0021.913-6.859 193.111 193.111 0 0025.132-14.385c1.555-1.011 1.275-2.162-.529-2.364a49.88 49.88 0 00-24.059 3.748 70.593 70.593 0 00-20.342 13.39c-1.322 1.229-1.555 1.042-.544-.451a217.712 217.712 0 0110.668-14.339 27.42 27.42 0 014.728-4.386 262.562 262.562 0 0023.328-18.273 332.325 332.325 0 0024.557-24.666c1.213-1.353.762-2.084-.949-1.555a93.115 93.115 0 00-31.104 17.87 81.049 81.049 0 00-18.662 24.4 34.475 34.475 0 01-3.468 5.506 244.024 244.024 0 00-10.887 14.541c-1.01 1.555-1.26 1.368-.606-.311 2.441-6.221 5.676-15.023 8.258-24.184a110.09 110.09 0 004.106-26.547c0-1.82-1.058-2.177-2.147-.73-3.996 5.302-12.674 18.148-15.552 31.71a50.712 50.712 0 00.203 24.183 9.176 9.176 0 01.56 3.841l-.436.731c-.498.809-.98 1.556-1.462 2.427-.482.87-1.01 1.726-1.555 2.612-.544.887-.949 1.633-1.4 2.442l-1.43 2.644-1.307 2.519c-.467.887-.902 1.773-1.353 2.675-.451.902-.84 1.664-1.244 2.488-.404.825-.855 1.805-1.275 2.691-.42.886-.794 1.695-1.182 2.535-.39.84-.747 1.773-1.167 2.706a97.8 97.8 0 00-1.104 2.551c-.358.855-.746 1.819-1.12 2.737-.373.917-.7 1.71-1.026 2.566-.327.855-.716 1.835-1.058 2.752a337.68 337.68 0 00-.948 2.582l-.965 2.784c0 .171-.108.358-.17.529a10.57 10.57 0 01.217-2.737c.902-7.543 2.006-18.663 2.302-30a130.917 130.917 0 00-2.94-31.104c-.404-1.758-1.555-1.867-2.317-.218-2.986 6.61-9.44 23.328-8.693 39.533a57.134 57.134 0 007.636 27.309 8.384 8.384 0 01.855 5.895 220.095 220.095 0 00-8.04 42.363c-.156 1.804-.451 1.804-.7 0-1.089-7.993-2.908-19.626-5.646-31.275a140.8 140.8 0 00-11.524-31.384c-.84-1.555-2.006-1.415-2.332.374-1.291 7.387-3.562 26.298 1.555 42.97a60.871 60.871 0 0015.427 26.438 8.29 8.29 0 012.302 5.474 231.159 231.159 0 003.25 47.154c.312 1.789 0 1.866-.668.202-3.546-8.631-9.114-21.539-15.552-34.292a173.38 173.38 0 00-21.773-32.752c-1.182-1.369-2.286-.918-2.193.886.436 8.367 2.862 31.104 13.67 48.849 8.896 14.837 19.44 22.115 25.397 25.334a8.196 8.196 0 013.654 4.666 234.05 234.05 0 0015.07 44.463c.747 1.648.498 1.804-.606.358-5.957-7.776-15.008-19.378-24.883-30.56a186.074 186.074 0 00-31.104-27.994c-1.556-1.026-2.458-.326-1.929 1.416 2.473 8.398 10.855 31.383 26.843 46.935 13.172 12.955 26.018 17.45 32.939 19.036a8.007 8.007 0 014.666 3.53 225.96 225.96 0 0032.426 46.19c1.213 1.337 1.026 1.555-.467.529-8.149-5.677-20.218-13.842-32.752-21.415a181.799 181.799 0 00-37.885-17.108c-1.727-.528-2.442.451-1.415 1.944 4.898 7.201 19.797 26.656 39.72 36.594 16.547 8.367 30.232 8.694 37.324 8.072a8.052 8.052 0 015.614 1.897 213.826 213.826 0 0045.412 33.406c1.556.871 1.556 1.135-.249.606-10.388-3.11-25.831-7.574-41.337-11.462a204.972 204.972 0 00-44.012-5.94c-1.82 0-2.24 1.119-.824 2.27 7.045 5.77 28.413 21.306 52.426 25.132 20.031 3.328 34.37-.886 41.43-3.81a8.493 8.493 0 015.972 0 213.165 213.165 0 0021.182 8.445c1.711.575 3.11 1.011 3.11.979 0-.031 1.416.42 3.111.949a227.887 227.887 0 0024.385 5.957c1.773.342 1.758.59 0 .606-11.741.093-29.206.296-46.08.98a220.67 220.67 0 00-45.568 6.796c-1.741.498-1.819 1.68-.14 2.38 8.632 3.53 34.681 12.441 60.435 9.222 21.524-2.628 34.915-10.887 41.182-15.817a9.084 9.084 0 015.785-1.695c1.214.156 2.427.28 3.64.405 1.804.186 3.266-.358 3.266-1.167 0-.808-1.462-1.648-3.251-1.85l-3.11-.374a8.344 8.344 0 01-5.07-3.095zm129.89-1.555a252.347 252.347 0 0125.365-30.373c13.686-13.794 26.703-25.661 31.96-30.388 1.337-1.213 2.457-.731 2.395 1.073-.233 6.221-2.053 20.653-14.526 35.769-9.518 11.82-24.059 19.643-34.665 24.075-1.68.7-1.555.964.171.637a214.06 214.06 0 0050.715-16.158 7.775 7.775 0 003.732-4.588 212.904 212.904 0 0112.784-35.614c7.916-16.734 16.345-31.493 19.829-37.48.918-1.556 2.146-1.447 2.613.311 1.664 6.018 4.245 20.217-2.473 37.884-5.07 13.748-15.428 25.055-23.328 32.162-1.353 1.197-1.182 1.462.404.591a211.91 211.91 0 0044.619-32.83 7.686 7.686 0 001.991-5.552 178.808 178.808 0 01.42-35.49 357.613 357.613 0 017.231-39.409c.42-1.757 1.633-1.991 2.582-.451a60.17 60.17 0 018.289 34.945c-.638 13.531-6.221 26.346-10.886 34.946-.871 1.555-.622 1.788.591.451a222.39 222.39 0 0031.819-45.35 7.64 7.64 0 00.156-5.91 169.566 169.566 0 01-10.545-33.545 330.894 330.894 0 01-4.961-39.518c-.109-1.804.98-2.395 2.364-1.228a59.488 59.488 0 0118.383 30.435c3.483 13.141 2.13 27.076.295 36.64-.342 1.773 0 1.882.7.234a232.55 232.55 0 0014.759-43.546 7.623 7.623 0 00-1.4-5.723 149.787 149.787 0 01-17.574-27.807 298.598 298.598 0 01-13.763-35.163c-.545-1.726.373-2.566 1.99-1.758a56.97 56.97 0 0123.811 23.655c6.314 11.322 8.398 24.51 8.989 33.67.109 1.804.42 1.835.731 0a229.214 229.214 0 003.11-46.267 7.544 7.544 0 00-2.83-5.148 118.603 118.603 0 01-20.374-19.362 235.5 235.5 0 01-18.911-27.34c-.917-1.556-.218-2.567 1.555-2.1a52.68 52.68 0 0124.619 15.552c7.434 8.056 11.975 18.274 14.526 25.754.591 1.726.902 1.664.731-.14a218.747 218.747 0 00-7.916-41.633 7.775 7.775 0 00-4.013-4.323 108.223 108.223 0 01-23.032-13.188 226.325 226.325 0 01-23.795-21.26c-1.275-1.306-.824-2.426.996-2.317a52.109 52.109 0 0126.096 9.238 73.006 73.006 0 0119.44 20.653c.467.806.987 1.58 1.555 2.317 0-.171-.109-.326-.156-.482-.311-.902-.622-1.788-.948-2.69-.327-.902-.638-1.742-.964-2.629-.327-.886-.669-1.773-1.011-2.659l-1.042-2.613c-.358-.886-.731-1.773-1.089-2.644l-1.12-2.597-1.166-2.628c-.389-.855-.793-1.711-1.198-2.566-.404-.856-.808-1.742-1.244-2.613-.435-.871-.824-1.679-1.259-2.535l-1.307-2.581c-.435-.84-.886-1.68-1.337-2.504l-1.4-2.566-1.4-2.489-1.43-2.535-1.556-2.457-.42-.684a8.546 8.546 0 00-3.67-1.167 91.316 91.316 0 01-21.913-6.858 194.145 194.145 0 01-25.132-14.386c-1.555-1.011-1.275-2.161.529-2.364a49.894 49.894 0 0124.168 3.748 70.614 70.614 0 0120.218 13.391c1.322 1.228 1.555 1.042.544-.451a217.032 217.032 0 00-10.669-14.339 27.309 27.309 0 00-4.759-4.386 262.672 262.672 0 01-23.328-18.273A335.625 335.625 0 01462.89 67.48c-1.213-1.353-.762-2.084.964-1.555a93.193 93.193 0 0131.104 17.87 81.159 81.159 0 0118.662 24.4 34.475 34.475 0 003.468 5.506 235.261 235.261 0 0110.887 14.541c1.011 1.555 1.26 1.368.606-.311-2.441-6.221-5.676-15.024-8.258-24.184a110.052 110.052 0 01-4.105-26.547c0-1.82 1.057-2.177 2.146-.73 3.997 5.302 12.69 18.148 15.552 31.71a50.958 50.958 0 01-.187 24.183 9.016 9.016 0 00-.575 3.841l.435.731 1.462 2.426c.513.856 1.011 1.727 1.555 2.613l1.384 2.442c.482.886.965 1.757 1.431 2.644.467.886.887 1.648 1.322 2.472.435.825.902 1.773 1.353 2.675.451.902.84 1.664 1.244 2.489l1.291 2.69 1.166 2.535c.405.902.809 1.804 1.198 2.706.389.902.746 1.695 1.104 2.551l1.12 2.737c.352.85.695 1.705 1.026 2.566.358.917.716 1.835 1.058 2.753.342.917.637 1.726.949 2.581l.979 2.784.187.529a12.757 12.757 0 00-.233-2.737c-.902-7.543-2.007-18.663-2.302-30a130.922 130.922 0 012.939-31.104c.405-1.757 1.555-1.866 2.318-.218 2.985 6.61 9.44 23.328 8.693 39.533a57.149 57.149 0 01-7.62 27.325 8.383 8.383 0 00-.856 5.894 221.316 221.316 0 018.041 42.364c.155 1.804.451 1.804.699 0 1.089-7.994 2.924-19.627 5.646-31.275a140.8 140.8 0 0111.524-31.384c.855-1.555 2.022-1.415 2.333.373 1.29 7.387 3.561 26.299-1.556 42.97a60.859 60.859 0 01-15.427 26.439 8.29 8.29 0 00-2.302 5.474 231.114 231.114 0 01-3.25 47.154c-.311 1.788 0 1.866.669.202 3.545-8.631 9.113-21.54 15.629-34.292a173.457 173.457 0 0121.851-32.753c1.182-1.368 2.286-.917 2.193.887-.436 8.367-2.862 31.104-13.671 48.849-8.895 14.836-19.424 22.115-25.396 25.334a8.202 8.202 0 00-3.655 4.665 233.952 233.952 0 01-15.07 44.464c-.746 1.648-.497 1.804.607.357 5.956-7.776 15.008-19.377 24.883-30.559a186.126 186.126 0 0131.104-27.994c1.555-1.026 2.457-.327 1.929 1.415-2.551 8.336-10.98 31.369-26.921 46.858-13.172 12.955-26.018 17.45-32.939 19.036a8.01 8.01 0 00-4.743 3.53 225.38 225.38 0 01-32.426 46.19c-1.213 1.337-1.027 1.555.466.529 8.15-5.677 20.218-13.842 32.753-21.416a181.844 181.844 0 0137.884-17.107c1.742-.528 2.442.451 1.431 1.944-4.914 7.201-19.797 26.656-39.735 36.594-16.547 8.367-30.233 8.694-37.325 8.072a8.116 8.116 0 00-5.614 1.897 214.168 214.168 0 01-45.412 33.406c-1.555.871-1.477 1.135.249.606 10.389-3.11 25.832-7.574 41.337-11.462a204.99 204.99 0 0144.028-5.94c1.804 0 2.224 1.119.824 2.27-7.061 5.77-28.429 21.306-52.441 25.132-20.031 3.328-34.355-.886-41.431-3.81a8.438 8.438 0 00-5.956 0 213.345 213.345 0 01-21.198 8.445c-1.71.575-3.11 1.011-3.11.979 0-.031-1.415.42-3.11.949a228.702 228.702 0 01-24.37 5.957c-1.789.342-1.773.59 0 .606 11.741.093 29.206.296 46.08.98a220.515 220.515 0 0145.567 6.796c1.742.498 1.82 1.68.14 2.379-8.631 3.531-34.681 12.442-60.419 9.223-21.54-2.628-34.93-10.887-41.197-15.817a9.086 9.086 0 00-5.786-1.695c-1.213.156-2.426.28-3.639.405-1.804.186-3.266-.358-3.266-1.167 0-.808 1.462-1.648 3.266-1.85l3.111-.374a8.267 8.267 0 004.945-2.986z" fill="#CCA650"/><path d="M288.644 50l15.059 26.097h13.132a3.509 3.509 0 003.038-1.754l11.015-19.08c1.35-2.34-.338-5.263-3.039-5.263h-39.205z" fill="url(#paint0_linear_620_2009)"/><path d="M288.644 50l15.059 26.097-7.571 13.115H266L288.644 50z" fill="url(#paint1_linear_620_2009)"/><path d="M266 89.212h30.132l7.571 13.123-15.059 26.097L266 89.212z" fill="url(#paint2_linear_620_2009)"/><path d="M303.703 102.335h15.157l15.066 26.097h-45.282l15.059-26.097z" fill="url(#paint3_linear_620_2009)"/><path d="M318.859 102.335l6.559-11.367a3.509 3.509 0 013.039-1.756h22.029c2.701 0 4.389 2.924 3.039 5.263l-19.6 33.957-15.066-26.097z" fill="url(#paint4_linear_620_2009)"/><path d="M79.05 279.314H0l30.062 51.757L0 382.828h112.083V279.314H79.051z" fill="url(#paint5_linear_620_2009)"/><path d="M618.488 279.314H506.404v103.514h112.084l-30.062-51.757 30.062-51.757z" fill="url(#paint6_linear_620_2009)"/><path d="M533.851 348.416V224H86v124.416h447.851z" fill="url(#paint7_linear_620_2009)"/><path d="M209.678 240.96h14.016c2.048 0 3.904.352 5.568 1.056 1.664.672 3.088 1.6 4.272 2.784a12.291 12.291 0 012.736 4.176c.64 1.568.96 3.248.96 5.04 0 1.76-.32 3.44-.96 5.04a12.814 12.814 0 01-2.736 4.224c-1.152 1.184-2.576 2.144-4.272 2.88-1.664.704-3.536 1.056-5.616 1.056h-5.568V276h-8.4v-35.04zm8.4 7.584v10.896h5.184c1.568 0 2.864-.496 3.888-1.488 1.056-.992 1.584-2.304 1.584-3.936 0-1.632-.528-2.944-1.584-3.936-1.024-1.024-2.32-1.536-3.888-1.536h-5.184zm23.569-7.584h24.192v7.776h-15.84v5.76h15.84v7.776h-15.84v5.952h15.84V276h-24.192v-35.04zm29.25 0h15.072c2.112 0 3.984.32 5.616.96 1.632.64 3.008 1.504 4.128 2.592a10.75 10.75 0 012.544 3.84c.576 1.44.864 2.992.864 4.656 0 2.24-.512 4.272-1.536 6.096a10.91 10.91 0 01-4.128 4.224L299.985 276h-9.216l-4.944-10.512h-6.576V276h-8.352v-35.04zm8.352 7.632v9.312h6.096c1.792 0 3.104-.448 3.936-1.344.864-.928 1.296-2.048 1.296-3.36 0-1.44-.432-2.56-1.296-3.36-.864-.832-2.176-1.248-3.936-1.248h-6.096zm37.139 10.896l-4.56 5.856V276h-8.4v-35.04h8.4v14.304l11.184-14.304h9.744l-10.272 12.864L332.852 276h-8.928l-7.536-16.512zm32.341 16.992c-1.952 0-3.712-.176-5.28-.528-1.536-.352-2.944-.832-4.224-1.44a17.992 17.992 0 01-3.408-2.256 24.954 24.954 0 01-2.736-2.784l7.2-5.76c1.024 1.568 2.24 2.784 3.648 3.648 1.408.864 3.104 1.296 5.088 1.296 1.44 0 2.528-.304 3.264-.912.736-.608 1.104-1.392 1.104-2.352 0-.576-.144-1.056-.432-1.44-.288-.384-.736-.72-1.344-1.008-.608-.288-1.36-.544-2.256-.768a65.653 65.653 0 00-3.216-.816 47.007 47.007 0 01-3.888-1.056 14.193 14.193 0 01-3.552-1.776 9.154 9.154 0 01-2.592-2.928c-.672-1.184-1.008-2.672-1.008-4.464 0-1.536.32-2.96.96-4.272a10.522 10.522 0 012.64-3.408c1.12-.96 2.464-1.712 4.032-2.256 1.568-.544 3.296-.816 5.184-.816 1.6 0 3.056.144 4.368.432 1.312.256 2.512.656 3.6 1.2a13.85 13.85 0 013.12 1.968 24.448 24.448 0 012.88 2.64l-6.72 5.232c-.832-1.312-1.84-2.32-3.024-3.024-1.184-.736-2.656-1.104-4.416-1.104-1.44 0-2.496.32-3.168.96-.672.64-1.008 1.36-1.008 2.16 0 .544.16.992.48 1.344.352.352.832.656 1.44.912.64.224 1.392.448 2.256.672.896.192 1.872.416 2.928.672 1.312.288 2.64.656 3.984 1.104a12.193 12.193 0 013.648 1.824 9.052 9.052 0 012.736 2.976c.704 1.216 1.056 2.768 1.056 4.656 0 1.664-.336 3.2-1.008 4.608a11.244 11.244 0 01-2.784 3.6c-1.184 1.024-2.592 1.824-4.224 2.4-1.632.576-3.408.864-5.328.864zm38.656 0c-1.728 0-3.28-.24-4.656-.72s-2.544-1.136-3.504-1.968a9.063 9.063 0 01-2.16-3.072c-.48-1.184-.72-2.48-.72-3.888 0-1.12.176-2.144.528-3.072.384-.928.88-1.776 1.488-2.544.64-.8 1.36-1.52 2.16-2.16.8-.64 1.648-1.248 2.544-1.824a16.643 16.643 0 01-1.44-1.92 12.518 12.518 0 01-.96-1.824 9.37 9.37 0 01-.48-1.92 15.293 15.293 0 01-.144-2.16c0-1.216.256-2.368.768-3.456a9.1 9.1 0 012.064-2.832 9.448 9.448 0 013.12-1.92c1.216-.48 2.512-.72 3.888-.72s2.656.224 3.84.672c1.216.448 2.272 1.072 3.168 1.872a7.728 7.728 0 012.064 2.784c.512 1.056.768 2.208.768 3.456 0 .992-.16 1.904-.48 2.736a8.774 8.774 0 01-1.2 2.304c-.512.704-1.12 1.36-1.824 1.968a23.216 23.216 0 01-2.16 1.728l3.408 3.408 5.424-6.48h9.504l-9.552 11.328 9.936 9.744h-10.848l-4.128-4.08a29.24 29.24 0 01-2.64 2.208 12.59 12.59 0 01-2.448 1.392c-.832.352-1.68.592-2.544.72-.864.16-1.792.24-2.784.24zm.576-7.152c.8 0 1.552-.16 2.256-.48.736-.32 1.552-.928 2.448-1.824l-4.944-4.896c-.896.64-1.632 1.296-2.208 1.968-.544.64-.816 1.344-.816 2.112 0 .928.304 1.68.912 2.256.608.576 1.392.864 2.352.864zm-.48-19.968c0 .704.128 1.344.384 1.92.288.544.816 1.232 1.584 2.064.864-.608 1.568-1.232 2.112-1.872.544-.64.816-1.344.816-2.112 0-.704-.24-1.264-.72-1.68-.48-.416-1.056-.624-1.728-.624-.672 0-1.248.208-1.728.624-.48.416-.72.976-.72 1.68zm-189.428 44.6h13.872c4.256 0 7.44.848 9.552 2.544 2.144 1.696 3.216 4.192 3.216 7.488 0 1.6-.32 2.96-.96 4.08-.608 1.12-1.472 2.048-2.592 2.784 1.344.768 2.384 1.776 3.12 3.024.736 1.216 1.104 2.72 1.104 4.512 0 3.648-1.2 6.336-3.6 8.064-2.368 1.696-5.648 2.544-9.84 2.544h-13.872v-35.04zm8.16 20.88v6.816h5.904c1.632 0 2.816-.288 3.552-.864.768-.608 1.152-1.472 1.152-2.592s-.352-1.952-1.056-2.496c-.704-.576-1.968-.864-3.792-.864h-5.76zm0-13.584v6.24h6.096c1.504 0 2.56-.304 3.168-.912.608-.608.912-1.376.912-2.304 0-.96-.32-1.696-.96-2.208-.64-.544-1.696-.816-3.168-.816h-6.048zm23.574-7.296h24.192v7.776h-15.84v5.76h15.84v7.776h-15.84v5.952h15.84V329h-24.192v-35.04zm29.25 0h8.736l13.2 21.024V293.96h7.968V329h-8.112l-13.776-22.032V329h-8.016v-35.04zm35.203 0h24.192v7.776h-15.84v5.76h15.84v7.776h-15.84v5.952h15.84V329H294.24v-35.04zm29.25 0h24.096v7.872h-15.744v6.24h15.744v7.728h-15.744V329h-8.352v-35.04zm29.254 0h8.448V329h-8.448v-35.04zm22.659 7.728h-9.504v-7.728h27.072v7.728h-9.408V329h-8.16v-27.312zm34.123 27.792c-1.952 0-3.712-.176-5.28-.528-1.536-.352-2.944-.832-4.224-1.44a17.992 17.992 0 01-3.408-2.256 24.954 24.954 0 01-2.736-2.784l7.2-5.76c1.024 1.568 2.24 2.784 3.648 3.648 1.408.864 3.104 1.296 5.088 1.296 1.44 0 2.528-.304 3.264-.912.736-.608 1.104-1.392 1.104-2.352 0-.576-.144-1.056-.432-1.44-.288-.384-.736-.72-1.344-1.008-.608-.288-1.36-.544-2.256-.768a65.653 65.653 0 00-3.216-.816 47.007 47.007 0 01-3.888-1.056 14.193 14.193 0 01-3.552-1.776 9.154 9.154 0 01-2.592-2.928c-.672-1.184-1.008-2.672-1.008-4.464 0-1.536.32-2.96.96-4.272a10.522 10.522 0 012.64-3.408c1.12-.96 2.464-1.712 4.032-2.256 1.568-.544 3.296-.816 5.184-.816 1.6 0 3.056.144 4.368.432 1.312.256 2.512.656 3.6 1.2a13.85 13.85 0 013.12 1.968 24.448 24.448 0 012.88 2.64l-6.72 5.232c-.832-1.312-1.84-2.32-3.024-3.024-1.184-.736-2.656-1.104-4.416-1.104-1.44 0-2.496.32-3.168.96-.672.64-1.008 1.36-1.008 2.16 0 .544.16.992.48 1.344.352.352.832.656 1.44.912.64.224 1.392.448 2.256.672.896.192 1.872.416 2.928.672 1.312.288 2.64.656 3.984 1.104a12.193 12.193 0 013.648 1.824 9.052 9.052 0 012.736 2.976c.704 1.216 1.056 2.768 1.056 4.656 0 1.664-.336 3.2-1.008 4.608a11.244 11.244 0 01-2.784 3.6c-1.184 1.024-2.592 1.824-4.224 2.4-1.632.576-3.408.864-5.328.864z" fill="#fff"/><path d="M159.7 164.34h12.684c3.416 0 6.034.742 7.854 2.226 1.848 1.456 2.772 3.57 2.772 6.342 0 1.428-.308 2.66-.924 3.696-.588 1.036-1.456 1.876-2.604 2.52 1.288.644 2.268 1.54 2.94 2.688.7 1.148 1.05 2.52 1.05 4.116 0 1.512-.252 2.842-.756 3.99a7.437 7.437 0 01-2.184 2.814c-.952.756-2.114 1.33-3.486 1.722-1.344.364-2.87.546-4.578.546H159.7v-30.66zm5.838 17.682v7.644h7.014c1.624 0 2.842-.336 3.654-1.008.84-.7 1.26-1.652 1.26-2.856s-.392-2.128-1.176-2.772c-.784-.672-2.114-1.008-3.99-1.008h-6.762zm0-12.432v7.098h7.056c1.596 0 2.744-.336 3.444-1.008.7-.7 1.05-1.582 1.05-2.646 0-1.064-.378-1.904-1.134-2.52-.728-.616-1.876-.924-3.444-.924h-6.972zm33.299 25.872c-1.82 0-3.472-.294-4.956-.882-1.484-.616-2.758-1.456-3.822-2.52a11.11 11.11 0 01-2.394-3.738c-.56-1.428-.84-2.968-.84-4.62 0-1.652.294-3.192.882-4.62.616-1.456 1.456-2.716 2.52-3.78 1.064-1.064 2.324-1.904 3.78-2.52 1.456-.616 3.024-.924 4.704-.924 1.708 0 3.276.294 4.704.882 1.428.588 2.66 1.4 3.696 2.436 1.036 1.008 1.848 2.226 2.436 3.654.588 1.428.882 2.982.882 4.662v2.184h-18.018c.392 1.484 1.148 2.66 2.268 3.528 1.148.84 2.562 1.26 4.242 1.26 1.344 0 2.478-.266 3.402-.798a6.514 6.514 0 002.226-2.226l4.746 2.772a13.333 13.333 0 01-4.2 3.822c-1.652.952-3.738 1.428-6.258 1.428zm-.126-18.69c-1.484 0-2.758.392-3.822 1.176-1.064.784-1.834 1.848-2.31 3.192h12.096c-.392-1.428-1.106-2.506-2.142-3.234-1.036-.756-2.31-1.134-3.822-1.134zm24.56 18.69c-2.716 0-4.942-.476-6.678-1.428-1.708-.98-3.01-2.38-3.906-4.2l5.586-2.184c1.008 2.044 2.744 3.066 5.208 3.066 1.176 0 2.072-.238 2.688-.714.616-.504.924-1.092.924-1.764 0-.42-.14-.756-.42-1.008-.28-.28-.672-.504-1.176-.672a10.043 10.043 0 00-1.68-.504 87.48 87.48 0 00-2.058-.42 39.673 39.673 0 01-2.898-.714c-.952-.28-1.82-.672-2.604-1.176a6.259 6.259 0 01-1.848-1.89c-.476-.784-.714-1.778-.714-2.982 0-.952.224-1.862.672-2.73a6.946 6.946 0 011.89-2.268c.812-.644 1.778-1.148 2.898-1.512 1.148-.392 2.422-.588 3.822-.588 2.408 0 4.368.434 5.88 1.302 1.512.84 2.8 2.016 3.864 3.528l-5.292 2.142a5.178 5.178 0 00-1.806-1.764c-.7-.42-1.582-.63-2.646-.63-1.148 0-2.002.21-2.562.63-.532.392-.798.91-.798 1.554 0 .728.448 1.246 1.344 1.554.896.28 2.17.602 3.822.966.952.196 1.904.434 2.856.714.98.28 1.862.686 2.646 1.218a6.046 6.046 0 011.974 1.974c.504.812.756 1.82.756 3.024 0 .896-.196 1.792-.588 2.688-.392.868-.994 1.666-1.806 2.394-.812.7-1.834 1.274-3.066 1.722-1.204.448-2.632.672-4.284.672zm11.448-23.142h4.2v-4.914l5.712-3.36v8.274h5.964v5.124h-5.964v9.324c0 1.204.224 2.044.672 2.52.476.476 1.078.714 1.806.714.756 0 1.456-.28 2.1-.84l2.646 4.536a8.369 8.369 0 01-2.478 1.302c-.896.28-1.876.42-2.94.42-2.38 0-4.228-.63-5.544-1.89-1.316-1.288-1.974-3.472-1.974-6.552v-9.534h-4.2v-5.124zm44.933 23.1c-2.324 0-4.452-.406-6.384-1.218-1.904-.84-3.556-1.974-4.956-3.402-1.372-1.428-2.45-3.094-3.234-4.998-.756-1.904-1.134-3.948-1.134-6.132 0-2.24.392-4.312 1.176-6.216.812-1.932 1.918-3.598 3.318-4.998a15.149 15.149 0 014.998-3.318c1.904-.812 3.976-1.218 6.216-1.218 1.456 0 2.856.182 4.2.546 1.372.364 2.632.882 3.78 1.554a15.06 15.06 0 013.192 2.436c.952.924 1.764 1.96 2.436 3.108l-5.208 3.276c-.812-1.596-1.932-2.842-3.36-3.738-1.4-.924-3.066-1.386-4.998-1.386-1.4 0-2.702.266-3.906.798a9.347 9.347 0 00-3.066 2.1c-.868.896-1.554 1.96-2.058 3.192a10.414 10.414 0 00-.714 3.864 10.3 10.3 0 00.714 3.822 9.488 9.488 0 002.016 3.15 9.91 9.91 0 003.066 2.142c1.176.504 2.464.756 3.864.756 2.1 0 3.878-.518 5.334-1.554a10.048 10.048 0 003.36-4.116l5.418 2.898a15.99 15.99 0 01-2.394 3.528 15.08 15.08 0 01-3.234 2.73 15.009 15.009 0 01-3.906 1.764c-1.428.42-2.94.63-4.536.63zm28.532.042c-1.708 0-3.29-.308-4.746-.924a12.27 12.27 0 01-3.822-2.52 12.408 12.408 0 01-2.52-3.78c-.588-1.428-.882-2.954-.882-4.578s.294-3.15.882-4.578c.616-1.456 1.456-2.716 2.52-3.78a12.27 12.27 0 013.822-2.52c1.456-.616 3.038-.924 4.746-.924 1.68 0 3.248.308 4.704.924 1.484.616 2.758 1.456 3.822 2.52a11.435 11.435 0 012.562 3.78c.616 1.428.924 2.954.924 4.578s-.308 3.15-.924 4.578a12.408 12.408 0 01-2.52 3.78c-1.064 1.064-2.338 1.904-3.822 2.52-1.456.616-3.038.924-4.746.924zm.042-5.502a5.93 5.93 0 002.436-.504 6.489 6.489 0 001.974-1.344c.56-.56.994-1.218 1.302-1.974a6.329 6.329 0 00.504-2.52c0-.868-.168-1.694-.504-2.478a5.823 5.823 0 00-1.302-2.016 6.489 6.489 0 00-1.974-1.344 5.93 5.93 0 00-2.436-.504 5.93 5.93 0 00-2.436.504 6.489 6.489 0 00-1.974 1.344 6.356 6.356 0 00-1.344 2.016 6.716 6.716 0 00-.462 2.478c0 .896.154 1.736.462 2.52a6.489 6.489 0 001.344 1.974 6.489 6.489 0 001.974 1.344 5.93 5.93 0 002.436.504zm15.772-17.64h5.796v2.688c.7-.98 1.582-1.75 2.646-2.31 1.064-.56 2.282-.84 3.654-.84 1.708 0 3.136.336 4.284 1.008 1.148.644 2.03 1.582 2.646 2.814a7.863 7.863 0 012.898-2.772c1.232-.7 2.632-1.05 4.2-1.05 2.884 0 5.04.826 6.468 2.478 1.456 1.624 2.184 3.864 2.184 6.72V195h-5.964v-13.104c0-1.54-.336-2.744-1.008-3.612-.644-.896-1.708-1.344-3.192-1.344-1.316 0-2.366.448-3.15 1.344-.784.868-1.176 2.198-1.176 3.99V195h-5.922v-13.272c0-1.512-.322-2.688-.966-3.528-.644-.84-1.68-1.26-3.108-1.26-1.372 0-2.464.448-3.276 1.344-.784.896-1.176 2.268-1.176 4.116V195h-5.838v-22.68zm52.105 23.142c-1.54 0-2.926-.266-4.158-.798-1.232-.56-2.226-1.372-2.982-2.436v11.844h-5.754V172.32h5.712v3.15a8.01 8.01 0 012.982-2.646c1.232-.644 2.618-.966 4.158-.966 1.428 0 2.8.28 4.116.84a10.1 10.1 0 013.486 2.352c1.008 1.036 1.806 2.282 2.394 3.738.616 1.456.924 3.08.924 4.872 0 1.82-.308 3.458-.924 4.914-.616 1.428-1.428 2.66-2.436 3.696a10.624 10.624 0 01-3.486 2.394 10.46 10.46 0 01-4.032.798zm-1.176-5.46a5.93 5.93 0 002.436-.504 6.489 6.489 0 001.974-1.344 6.06 6.06 0 001.344-2.016 6.329 6.329 0 00.504-2.52c0-.896-.168-1.722-.504-2.478a5.544 5.544 0 00-1.344-2.016 6.141 6.141 0 00-1.974-1.386 5.93 5.93 0 00-2.436-.504c-.896 0-1.736.168-2.52.504a6.141 6.141 0 00-1.974 1.386 6.356 6.356 0 00-1.344 2.016 6.716 6.716 0 00-.462 2.478c0 .896.154 1.736.462 2.52a7.052 7.052 0 001.344 2.016 6.489 6.489 0 001.974 1.344 6.329 6.329 0 002.52.504zm22.656 5.46c-2.492 0-4.438-.616-5.838-1.848-1.372-1.26-2.058-2.898-2.058-4.914 0-2.38.91-4.242 2.73-5.586 1.82-1.344 4.312-2.016 7.476-2.016h5.964v-.294c0-1.232-.406-2.226-1.218-2.982-.812-.756-2.044-1.134-3.696-1.134-1.288 0-2.366.266-3.234.798-.868.504-1.568 1.232-2.1 2.184l-5.334-2.646a13.658 13.658 0 014.284-3.696c1.736-.98 3.878-1.47 6.426-1.47 3.36 0 5.95.812 7.77 2.436 1.82 1.624 2.73 3.878 2.73 6.762V195h-5.586v-3.486c-.812 1.176-1.96 2.128-3.444 2.856-1.456.728-3.08 1.092-4.872 1.092zm1.68-4.788c.7 0 1.386-.098 2.058-.294a7.634 7.634 0 001.89-.84 6.983 6.983 0 001.554-1.302 6.125 6.125 0 001.134-1.68v-1.218h-5.334c-1.736 0-2.982.252-3.738.756-.728.504-1.092 1.204-1.092 2.1 0 1.652 1.176 2.478 3.528 2.478zm16.693-18.354h5.795v2.856a7.745 7.745 0 012.772-2.436c1.149-.588 2.437-.882 3.865-.882 2.688 0 4.816.84 6.384 2.52 1.596 1.652 2.393 3.962 2.393 6.93V195h-5.922v-12.81c0-1.624-.391-2.898-1.175-3.822-.757-.952-1.904-1.428-3.444-1.428-1.373 0-2.52.49-3.444 1.47-.925.952-1.387 2.31-1.387 4.074V195h-5.837v-22.68z" fill="#000"/><path d="M443.09 203.988c-1.204 0-2.38-.196-3.528-.588-1.12-.392-2.1-.896-2.94-1.512l3.36-4.704c.392.42.84.756 1.344 1.008.504.252 1.078.378 1.722.378 1.036 0 1.89-.266 2.562-.798.7-.532 1.33-1.47 1.89-2.814l.378-.924-9.114-21.714h6.174l5.88 14.616 5.586-14.616h6.048l-9.786 23.898c-.588 1.456-1.19 2.674-1.806 3.654-.616 1.008-1.302 1.806-2.058 2.394a6.771 6.771 0 01-2.52 1.302c-.924.28-1.988.42-3.192.42z" fill="#000"/><rect x="243" y="446" width="134" height="60" rx="12" fill="#CCA650"/><path d="M269.217 484.752c0-1.176.216-2.232.648-3.168a9.98 9.98 0 011.728-2.556 13.05 13.05 0 012.376-2.052c.888-.624 1.764-1.2 2.628-1.728.72-.456 1.404-.888 2.052-1.296a11.502 11.502 0 001.728-1.26c.504-.432.9-.876 1.188-1.332.288-.456.432-.948.432-1.476 0-.912-.324-1.656-.972-2.232-.624-.6-1.548-.9-2.772-.9-1.224 0-2.256.348-3.096 1.044-.84.696-1.476 1.584-1.908 2.664l-4.5-2.196c.888-1.8 2.136-3.228 3.744-4.284 1.632-1.08 3.576-1.62 5.832-1.62 1.392 0 2.628.192 3.708.576 1.08.384 1.992.924 2.736 1.62a6.386 6.386 0 011.728 2.412c.408.912.612 1.896.612 2.952s-.204 2.004-.612 2.844a8.763 8.763 0 01-1.584 2.268 13.007 13.007 0 01-2.232 1.836 54.213 54.213 0 01-2.484 1.584 79.52 79.52 0 00-2.088 1.296c-.672.432-1.272.876-1.8 1.332a7.745 7.745 0 00-1.26 1.44 3.16 3.16 0 00-.54 1.656h12.492V489h-17.784v-4.248zm30.599-.252c.792 0 1.512-.12 2.16-.36.648-.264 1.188-.708 1.62-1.332.456-.648.804-1.5 1.044-2.556s.36-2.388.36-3.996v-1.08c0-1.584-.132-2.892-.396-3.924-.24-1.032-.588-1.848-1.044-2.448-.432-.6-.972-1.02-1.62-1.26-.624-.24-1.32-.36-2.088-.36-.792 0-1.512.132-2.16.396-.624.24-1.164.672-1.62 1.296-.456.6-.816 1.416-1.08 2.448-.24 1.032-.36 2.316-.36 3.852v1.08c0 1.632.12 2.976.36 4.032s.576 1.896 1.008 2.52c.456.624 1.008 1.068 1.656 1.332.648.24 1.368.36 2.16.36zm0 4.86c-1.512 0-2.904-.228-4.176-.684a8.205 8.205 0 01-3.24-2.268c-.888-1.032-1.584-2.376-2.088-4.032-.504-1.656-.756-3.672-.756-6.048v-1.224c0-2.28.264-4.224.792-5.832.528-1.608 1.248-2.928 2.16-3.96.936-1.032 2.028-1.776 3.276-2.232 1.248-.48 2.592-.72 4.032-.72 1.464 0 2.82.24 4.068.72a8.157 8.157 0 013.276 2.268c.912 1.032 1.632 2.352 2.16 3.96.528 1.608.792 3.54.792 5.796v1.224c0 2.424-.252 4.464-.756 6.12-.504 1.656-1.212 3-2.124 4.032a7.992 7.992 0 01-3.276 2.196c-1.248.456-2.628.684-4.14.684zm12.536-4.608c0-1.176.216-2.232.648-3.168a9.98 9.98 0 011.728-2.556 13.05 13.05 0 012.376-2.052c.888-.624 1.764-1.2 2.628-1.728.72-.456 1.404-.888 2.052-1.296a11.502 11.502 0 001.728-1.26c.504-.432.9-.876 1.188-1.332.288-.456.432-.948.432-1.476 0-.912-.324-1.656-.972-2.232-.624-.6-1.548-.9-2.772-.9-1.224 0-2.256.348-3.096 1.044-.84.696-1.476 1.584-1.908 2.664l-4.5-2.196c.888-1.8 2.136-3.228 3.744-4.284 1.632-1.08 3.576-1.62 5.832-1.62 1.392 0 2.628.192 3.708.576 1.08.384 1.992.924 2.736 1.62a6.386 6.386 0 011.728 2.412c.408.912.612 1.896.612 2.952s-.204 2.004-.612 2.844a8.763 8.763 0 01-1.584 2.268 13.007 13.007 0 01-2.232 1.836 54.213 54.213 0 01-2.484 1.584 79.52 79.52 0 00-2.088 1.296c-.672.432-1.272.876-1.8 1.332a7.745 7.745 0 00-1.26 1.44 3.16 3.16 0 00-.54 1.656h12.492V489h-17.784v-4.248zm29.075 4.608c-2.328 0-4.26-.372-5.796-1.116-1.536-.744-2.868-1.872-3.996-3.384l4.248-3.132c.648 1.08 1.428 1.86 2.34 2.34.912.456 1.98.684 3.204.684 1.296 0 2.352-.312 3.168-.936.84-.648 1.26-1.524 1.26-2.628 0-1.056-.42-1.872-1.26-2.448-.84-.6-1.944-.9-3.312-.9h-2.916v-4.572h2.7c1.392 0 2.436-.324 3.132-.972.72-.648 1.08-1.464 1.08-2.448 0-.864-.324-1.608-.972-2.232-.648-.624-1.656-.936-3.024-.936-1.2 0-2.196.252-2.988.756-.792.504-1.44 1.212-1.944 2.124l-4.212-2.52a10.05 10.05 0 013.744-3.42c1.536-.84 3.324-1.26 5.364-1.26 1.416 0 2.676.18 3.78.54 1.128.336 2.076.828 2.844 1.476a6.33 6.33 0 011.8 2.34c.432.888.648 1.884.648 2.988 0 1.224-.276 2.316-.828 3.276a7.034 7.034 0 01-2.268 2.34c1.152.6 2.064 1.392 2.736 2.376.672.984 1.008 2.184 1.008 3.6 0 1.152-.216 2.22-.648 3.204a7.084 7.084 0 01-1.908 2.556c-.816.72-1.812 1.284-2.988 1.692-1.176.408-2.508.612-3.996.612z" fill="#fff"/></g><defs><linearGradient id="paint0_linear_620_2009" x1="288.344" y1="49.649" x2="328.519" y2="99.596" gradientUnits="userSpaceOnUse"><stop stop-color="#FFB054"/><stop offset="1" stop-color="#F23980"/></linearGradient><linearGradient id="paint1_linear_620_2009" x1="296.525" y1="89.296" x2="281.066" y2="41.77" gradientUnits="userSpaceOnUse"><stop stop-color="#0061FF"/><stop offset="1" stop-color="#0041CE"/></linearGradient><linearGradient id="paint2_linear_620_2009" x1="253.96" y1="75.262" x2="302.514" y2="114.405" gradientUnits="userSpaceOnUse"><stop stop-color="#40C0C4"/><stop offset="1" stop-color="#83C83F"/></linearGradient><linearGradient id="paint3_linear_620_2009" x1="303.08" y1="107.892" x2="336.939" y2="161.109" gradientUnits="userSpaceOnUse"><stop stop-color="#00B9BF"/><stop offset="1" stop-color="#0061FF"/></linearGradient><linearGradient id="paint4_linear_620_2009" x1="332.551" y1="59.122" x2="353.894" y2="121.853" gradientUnits="userSpaceOnUse"><stop stop-color="#9B1578"/><stop offset="1" stop-color="#F23980"/></linearGradient><linearGradient id="paint5_linear_620_2009" x1="112" y1="402.5" x2="19.335" y2="271.703" gradientUnits="userSpaceOnUse"><stop stop-color="#01BABF"/><stop offset="1" stop-color="#83C83F"/></linearGradient><linearGradient id="paint6_linear_620_2009" x1="618.404" y1="402.5" x2="525.74" y2="271.703" gradientUnits="userSpaceOnUse"><stop stop-color="#01BABF"/><stop offset="1" stop-color="#83C83F"/></linearGradient><linearGradient id="paint7_linear_620_2009" x1="533.518" y1="372.06" x2="485.386" y2="146.204" gradientUnits="userSpaceOnUse"><stop stop-color="#01BABF"/><stop offset="1" stop-color="#83C83F"/></linearGradient><clipPath id="clip0_620_2009"><path fill="#fff" d="M0 0h619v506H0z"/></clipPath></defs></svg>