<?xml version="1.0" encoding="utf-8"?>
<!-- Generator: Adobe Illustrator 25.4.1, SVG Export Plug-In . SVG Version: 6.00 Build 0)  -->
<svg version="1.1" id="Layer_1" xmlns:v="https://vecta.io/nano"
	 xmlns="http://www.w3.org/2000/svg" xmlns:xlink="http://www.w3.org/1999/xlink" x="0px" y="0px" viewBox="0 0 296 296"
	 style="enable-background:new 0 0 296 296;" xml:space="preserve">
<style type="text/css">
	@media (prefers-color-scheme: dark){
		.st0{fill:#F5F5F0;}
	}
</style>
<path class="st0" fill="#D83933" d="M217.1,46h9.2c6.4,0,8.7,1.7,10.6,7.7l45,143.5l13.9,43.7c1,3.2-1.1,6.7-4.7,6.8c-7,0.3-14,0.2-21,0
	c-3.3-0.1-5-2.6-6-5.7l-14.2-45.2c-0.8-2.8-2-3.8-5-3.8h-56.3c-2.9,0-4.2,0.9-5,3.7l-13.7,43.7c-1.9,6.1-3.6,7.4-9.8,7.4h-14.2
	c-7.1,0-9.3-2.8-7.2-9.6l18.4-58.6l39.8-126c1.9-6.1,4.2-7.8,10.5-7.8H217.1L217.1,46z M217.4,93.3h-1.1l-22.6,72.4h46.4L217.4,93.3
	z M30.5,149l-0.1,53.9c-0.3,10.6,7.8,20.7,19.7,20c10.5-0.6,21.1-0.1,31.6-0.1c10.3-0.1,17.9-7.7,18.1-18.3l0.1-11.8
	c0.1-4.5,2.1-6.6,6.4-6.7c5.8-0.1,11.5-0.1,17.3,0c3.7,0.1,6.2,2.2,6.1,5.9c-0.1,7.5,0.3,15.2-1.1,22.4c-4,20.4-20.2,34.1-42.5,35.3
	c-15,0.8-30.1,0.7-45.1-0.4c-20.4-1.4-36.7-17.4-40-37.9c-0.6-3.6-0.9-7.3-0.9-11L0,95.2c0-26,19.5-46.4,45.1-46.9
	c13.4-0.3,26.8-0.4,40.2,0C109.9,49,131,68.5,130,94.7c-0.1,3.6,0,7.1,0,10.7c-0.1,4.2-1.7,6.4-5.7,6.6c-6.3,0.3-12.5,0.2-18.8,0
	c-3.5-0.1-5.4-2.4-5.5-6c-0.1-4.2,0-8.4-0.1-12.6C99.5,82.9,91.7,75,81.5,75c-10.9-0.1-21.8-0.1-32.7,0C38.1,75,30.6,82.7,30.5,93.6
	L30.5,149L30.5,149z"/>
</svg>
